<svg width="42" height="47" viewBox="0 0 42 47" fill="none" xmlns="http://www.w3.org/2000/svg">
<g filter="url(#filter0_dd_419_1268)">
<path d="M17.1604 4.76773C18.4772 0.715114 24.2106 0.715119 25.5273 4.76774L27.3017 10.2287C27.8906 12.0411 29.5795 13.2682 31.4852 13.2682H37.2272C41.4884 13.2682 43.2601 18.721 39.8127 21.2256L35.1673 24.6007C33.6256 25.7208 32.9805 27.7063 33.5694 29.5187L35.3438 34.9796C36.6606 39.0323 32.0222 42.4023 28.5748 39.8976L23.9294 36.5225C22.3877 35.4024 20.3001 35.4024 18.7583 36.5225L14.113 39.8976C10.6656 42.4023 6.02719 39.0323 7.34397 34.9796L9.11835 29.5187C9.70723 27.7063 9.06212 25.7208 7.52041 24.6007L2.87501 21.2256C-0.572357 18.721 1.19936 13.2682 5.46053 13.2682H11.2026C13.1082 13.2682 14.7971 12.0411 15.386 10.2287L17.1604 4.76773Z" fill="#FFD600"/>
<path d="M17.1604 4.76773C18.4772 0.715114 24.2106 0.715119 25.5273 4.76774L27.3017 10.2287C27.8906 12.0411 29.5795 13.2682 31.4852 13.2682H37.2272C41.4884 13.2682 43.2601 18.721 39.8127 21.2256L35.1673 24.6007C33.6256 25.7208 32.9805 27.7063 33.5694 29.5187L35.3438 34.9796C36.6606 39.0323 32.0222 42.4023 28.5748 39.8976L23.9294 36.5225C22.3877 35.4024 20.3001 35.4024 18.7583 36.5225L14.113 39.8976C10.6656 42.4023 6.02719 39.0323 7.34397 34.9796L9.11835 29.5187C9.70723 27.7063 9.06212 25.7208 7.52041 24.6007L2.87501 21.2256C-0.572357 18.721 1.19936 13.2682 5.46053 13.2682H11.2026C13.1082 13.2682 14.7971 12.0411 15.386 10.2287L17.1604 4.76773Z" stroke="#FBFF4A" stroke-width="0.5"/>
</g>
<path opacity="0.3" fill-rule="evenodd" clip-rule="evenodd" d="M8.57485 39.6006C7.37959 38.5285 6.74441 36.8247 7.34401 34.9793L9.11839 29.5183C9.12235 29.5061 9.12625 29.4939 9.1301 29.4817L28.8428 12.3857C29.5871 12.9449 30.5076 13.2678 31.4852 13.2678H37.2273C37.3256 13.2678 37.4226 13.2708 37.5183 13.2765L8.57485 39.6006Z" fill="#E58F00"/>
<path fill-rule="evenodd" clip-rule="evenodd" d="M14.6997 11.3983L14.0284 0.203407L13.3572 11.3983L8.97844 7.51493L12.8618 11.8937L1.66687 12.565L12.8618 13.2362L8.97844 17.6149L13.3572 13.7316L14.0284 24.9265L14.6997 13.7316L19.0784 17.6149L15.1951 13.2362L26.39 12.565L15.1951 11.8937L19.0784 7.51493L14.6997 11.3983Z" fill="white"/>
<defs>
<filter id="filter0_dd_419_1268" x="0.802856" y="1.47827" width="41.082" height="45.5305" filterUnits="userSpaceOnUse" color-interpolation-filters="sRGB">
<feFlood flood-opacity="0" result="BackgroundImageFix"/>
<feColorMatrix in="SourceAlpha" type="matrix" values="0 0 0 0 0 0 0 0 0 0 0 0 0 0 0 0 0 0 127 0" result="hardAlpha"/>
<feOffset dy="6"/>
<feComposite in2="hardAlpha" operator="out"/>
<feColorMatrix type="matrix" values="0 0 0 0 0 0 0 0 0 0 0 0 0 0 0 0 0 0 0.25 0"/>
<feBlend mode="normal" in2="BackgroundImageFix" result="effect1_dropShadow_419_1268"/>
<feColorMatrix in="SourceAlpha" type="matrix" values="0 0 0 0 0 0 0 0 0 0 0 0 0 0 0 0 0 0 127 0" result="hardAlpha"/>
<feOffset dy="3"/>
<feComposite in2="hardAlpha" operator="out"/>
<feColorMatrix type="matrix" values="0 0 0 0 0.9 0 0 0 0 0.560377 0 0 0 0 0 0 0 0 1 0"/>
<feBlend mode="normal" in2="effect1_dropShadow_419_1268" result="effect2_dropShadow_419_1268"/>
<feBlend mode="normal" in="SourceGraphic" in2="effect2_dropShadow_419_1268" result="shape"/>
</filter>
</defs>
</svg>
