<svg width="22" height="25" viewBox="0 0 22 25" fill="none" xmlns="http://www.w3.org/2000/svg">
<path d="M16.1566 0.274095C16.1002 0.217095 14.0693 0.296596 12.302 2.0321C10.5347 3.7661 10.8066 5.7551 10.8464 5.8061C10.8861 5.8571 13.3664 5.9366 14.9496 3.9191C16.5329 1.9016 16.213 0.332595 16.1566 0.274095ZM21.6509 17.8736C21.5713 17.7296 17.7962 16.0226 18.1477 12.7406C18.4992 9.4571 20.9247 8.5571 20.9628 8.4596C21.001 8.3621 19.9731 7.2746 18.8838 6.7241C18.0841 6.33597 17.199 6.11361 16.2925 6.0731C16.1135 6.0686 15.4918 5.9306 14.2135 6.2471C13.3713 6.4556 11.473 7.1306 10.9508 7.1576C10.4269 7.1846 8.86849 6.3746 7.19236 6.1601C6.1197 5.9726 4.98238 6.3566 4.16836 6.6521C3.35599 6.9461 1.81083 7.7831 0.729884 10.0076C-0.351064 12.2306 0.214278 15.7526 0.618805 16.8476C1.02333 17.9411 1.65499 19.7336 2.7293 21.0416C3.68425 22.5176 4.95088 23.5421 5.47975 23.8901C6.00862 24.2381 7.50072 24.4691 8.53525 23.9906C9.36751 23.5286 10.8696 23.2631 11.4631 23.2826C12.055 23.3021 13.2221 23.5136 14.4175 24.0911C15.3641 24.3866 16.2594 24.2636 17.1563 23.9336C18.0532 23.6021 19.3514 22.3451 20.8667 19.7966C21.442 18.6116 21.7039 17.9711 21.6509 17.8736Z" fill="white"/>
</svg>
