<svg width="25" height="29" viewBox="0 0 25 29" fill="none" xmlns="http://www.w3.org/2000/svg">
<g id="Group 479" filter="url(#filter0_dd_245_6593)">
<circle id="Ellipse 37" cx="12.7173" cy="13.4641" r="8.34326" fill="#81C34D"/>
<path id="Vector" d="M23.3035 1.88863C22.5476 1.14145 21.5538 0.682733 20.4948 0.592209C19.4358 0.501685 18.3786 0.785072 17.5068 1.39312C20.309 2.55982 22.5982 4.69541 23.9563 7.40999C24.4805 6.5492 24.7011 5.53753 24.5828 4.53665C24.4644 3.53576 24.014 2.60342 23.3035 1.88863Z" fill="#D9FF87"/>
<path id="Vector_2" d="M7.66608 1.51058C6.79795 0.821102 5.70747 0.47324 4.60045 0.532648C3.49342 0.592057 2.44643 1.05463 1.65708 1.83306C0.874235 2.62108 0.410592 3.67085 0.355412 4.78025C0.300232 5.88965 0.657418 6.98025 1.3582 7.84206C2.62019 5.03422 4.86297 2.78305 7.66608 1.51058Z" fill="#D9FF87"/>
<path id="Vector_3" d="M12.5298 2.44653C10.3557 2.45102 8.23169 3.09898 6.42532 4.30872C4.61894 5.51847 3.2111 7.23587 2.37923 9.24447C1.54737 11.2531 1.3287 13.463 1.75079 15.5956C2.17289 17.7283 3.21685 19.6883 4.75111 21.2286L2.74549 23.2342C2.67267 23.3086 2.61521 23.3966 2.5764 23.4932C2.53758 23.5897 2.51817 23.693 2.51926 23.7971C2.52036 23.9012 2.54194 24.004 2.58278 24.0997C2.62362 24.1955 2.68292 24.2822 2.75728 24.355C2.83165 24.4278 2.91963 24.4853 3.01621 24.5241C3.11278 24.5629 3.21605 24.5824 3.32012 24.5813C3.4242 24.5802 3.52704 24.5586 3.62277 24.5177C3.71851 24.4769 3.80526 24.4176 3.87808 24.3432L5.97022 22.2511C7.88345 23.6989 10.2198 24.4771 12.6191 24.4657C15.0183 24.4544 17.3472 23.654 19.2467 22.1882L21.4017 24.3432C21.5522 24.4721 21.7457 24.5394 21.9437 24.5318C22.1416 24.5241 22.3294 24.4421 22.4695 24.302C22.6096 24.1619 22.6916 23.9741 22.6993 23.7762C22.7069 23.5782 22.6396 23.3847 22.5107 23.2342L20.395 21.15C21.9077 19.6005 22.9299 17.6395 23.3339 15.5121C23.7379 13.3847 23.5057 11.1855 22.6663 9.18938C21.8269 7.19329 20.4176 5.489 18.6147 4.28968C16.8117 3.09036 14.6952 2.44925 12.5298 2.44653ZM18.4051 16.1556C18.315 16.3429 18.1544 16.487 17.9583 16.5563C17.7623 16.6255 17.5468 16.6144 17.359 16.5252L11.7433 13.8039V6.92183C11.7433 6.71323 11.8261 6.51318 11.9736 6.36568C12.1211 6.21817 12.3212 6.13531 12.5298 6.13531C12.7384 6.13531 12.9384 6.21817 13.0859 6.36568C13.2334 6.51318 13.3163 6.71323 13.3163 6.92183V12.8207L18.0354 15.1095C18.1296 15.1527 18.2143 15.2141 18.2846 15.2901C18.355 15.3661 18.4096 15.4553 18.4455 15.5525C18.4813 15.6497 18.4975 15.753 18.4933 15.8565C18.4891 15.96 18.4644 16.0616 18.4208 16.1556H18.4051Z" fill="#D9FF87"/>
</g>
<defs>
<filter id="filter0_dd_245_6593" x="0.349854" y="0.526123" width="24.2642" height="28.0552" filterUnits="userSpaceOnUse" color-interpolation-filters="sRGB">
<feFlood flood-opacity="0" result="BackgroundImageFix"/>
<feColorMatrix in="SourceAlpha" type="matrix" values="0 0 0 0 0 0 0 0 0 0 0 0 0 0 0 0 0 0 127 0" result="hardAlpha"/>
<feOffset dy="4"/>
<feComposite in2="hardAlpha" operator="out"/>
<feColorMatrix type="matrix" values="0 0 0 0 0 0 0 0 0 0 0 0 0 0 0 0 0 0 0.5 0"/>
<feBlend mode="normal" in2="BackgroundImageFix" result="effect1_dropShadow_245_6593"/>
<feColorMatrix in="SourceAlpha" type="matrix" values="0 0 0 0 0 0 0 0 0 0 0 0 0 0 0 0 0 0 127 0" result="hardAlpha"/>
<feOffset dy="2"/>
<feComposite in2="hardAlpha" operator="out"/>
<feColorMatrix type="matrix" values="0 0 0 0 0.505489 0 0 0 0 0.766667 0 0 0 0 0.300278 0 0 0 1 0"/>
<feBlend mode="normal" in2="effect1_dropShadow_245_6593" result="effect2_dropShadow_245_6593"/>
<feBlend mode="normal" in="SourceGraphic" in2="effect2_dropShadow_245_6593" result="shape"/>
</filter>
</defs>
</svg>
