<svg width="67" height="41" viewBox="0 0 67 41" fill="none" xmlns="http://www.w3.org/2000/svg">
<g filter="url(#filter0_dd_32_1044)">
<path d="M9.78345 15.352C10.5143 13.1027 13.6964 13.1027 14.4272 15.352L15.4121 18.3829C15.7389 19.3888 16.6763 20.0699 17.7339 20.0699H20.9209C23.2859 20.0699 24.2692 23.0963 22.3559 24.4864L19.7776 26.3596C18.9219 26.9813 18.5639 28.0833 18.8907 29.0892L19.8755 32.1201C20.6064 34.3694 18.032 36.2398 16.1186 34.8497L13.5404 32.9764C12.6847 32.3548 11.526 32.3548 10.6703 32.9764L8.09206 34.8497C6.17871 36.2398 3.60432 34.3694 4.33515 32.1201L5.31997 29.0892C5.64681 28.0833 5.28876 26.9813 4.43308 26.3596L1.8548 24.4864C-0.0585425 23.0963 0.924789 20.0699 3.28982 20.0699H6.47674C7.53441 20.0699 8.4718 19.3888 8.79863 18.3829L9.78345 15.352Z" fill="#FFD600"/>
<path d="M9.78345 15.352C10.5143 13.1027 13.6964 13.1027 14.4272 15.352L15.4121 18.3829C15.7389 19.3888 16.6763 20.0699 17.7339 20.0699H20.9209C23.2859 20.0699 24.2692 23.0963 22.3559 24.4864L19.7776 26.3596C18.9219 26.9813 18.5639 28.0833 18.8907 29.0892L19.8755 32.1201C20.6064 34.3694 18.032 36.2398 16.1186 34.8497L13.5404 32.9764C12.6847 32.3548 11.526 32.3548 10.6703 32.9764L8.09206 34.8497C6.17871 36.2398 3.60432 34.3694 4.33515 32.1201L5.31997 29.0892C5.64681 28.0833 5.28876 26.9813 4.43308 26.3596L1.8548 24.4864C-0.0585425 23.0963 0.924789 20.0699 3.28982 20.0699H6.47674C7.53441 20.0699 8.4718 19.3888 8.79863 18.3829L9.78345 15.352Z" stroke="#FBFF4A" stroke-width="0.374671"/>
</g>
<path opacity="0.3" fill-rule="evenodd" clip-rule="evenodd" d="M5.01826 34.6849C4.35491 34.0899 4.00241 33.1443 4.33518 32.1201L5.32 29.0892C5.32221 29.0823 5.3244 29.0755 5.32655 29.0687L16.2673 19.5802C16.6804 19.8906 17.1914 20.0699 17.734 20.0699H20.9209C20.9754 20.0699 21.0293 20.0715 21.0823 20.0746L5.01826 34.6849Z" fill="#E58F00"/>
<path fill-rule="evenodd" clip-rule="evenodd" d="M8.418 19.0321L8.04545 12.8188L7.67289 19.0322L5.24253 16.8768L7.39787 19.3071L1.18457 19.6797L7.39784 20.0522L5.24253 22.4825L7.67288 20.3271L8.04545 26.5405L8.418 20.3272L10.8482 22.4825L8.69289 20.0522L14.9063 19.6797L8.69286 19.3071L10.8482 16.8768L8.418 19.0321Z" fill="white"/>
<g filter="url(#filter1_dd_32_1044)">
<path d="M52.4959 15.352C53.2267 13.1027 56.4088 13.1027 57.1396 15.352L58.1245 18.3829C58.4513 19.3888 59.3887 20.0699 60.4464 20.0699H63.6333C65.9983 20.0699 66.9816 23.0963 65.0683 24.4864L62.49 26.3596C61.6343 26.9813 61.2763 28.0833 61.6031 29.0892L62.5879 32.1201C63.3188 34.3694 60.7444 36.2398 58.831 34.8497L56.2528 32.9764C55.3971 32.3548 54.2384 32.3548 53.3827 32.9764L50.8045 34.8497C48.8911 36.2398 46.3167 34.3694 47.0476 32.1201L48.0324 29.0892C48.3592 28.0833 48.0012 26.9813 47.1455 26.3596L44.5672 24.4864C42.6539 23.0963 43.6372 20.0699 46.0022 20.0699H49.1891C50.2468 20.0699 51.1842 19.3888 51.511 18.3829L52.4959 15.352Z" fill="#FFD600"/>
<path d="M52.4959 15.352C53.2267 13.1027 56.4088 13.1027 57.1396 15.352L58.1245 18.3829C58.4513 19.3888 59.3887 20.0699 60.4464 20.0699H63.6333C65.9983 20.0699 66.9816 23.0963 65.0683 24.4864L62.49 26.3596C61.6343 26.9813 61.2763 28.0833 61.6031 29.0892L62.5879 32.1201C63.3188 34.3694 60.7444 36.2398 58.831 34.8497L56.2528 32.9764C55.3971 32.3548 54.2384 32.3548 53.3827 32.9764L50.8045 34.8497C48.8911 36.2398 46.3167 34.3694 47.0476 32.1201L48.0324 29.0892C48.3592 28.0833 48.0012 26.9813 47.1455 26.3596L44.5672 24.4864C42.6539 23.0963 43.6372 20.0699 46.0022 20.0699H49.1891C50.2468 20.0699 51.1842 19.3888 51.511 18.3829L52.4959 15.352Z" stroke="#FBFF4A" stroke-width="0.374671"/>
</g>
<path opacity="0.3" fill-rule="evenodd" clip-rule="evenodd" d="M47.7307 34.6849C47.0673 34.0899 46.7148 33.1443 47.0476 32.1201L48.0324 29.0892C48.0346 29.0823 48.0368 29.0755 48.039 29.0687L58.9797 19.5802C59.3928 19.8906 59.9038 20.0699 60.4464 20.0699H63.6333C63.6878 20.0699 63.7417 20.0715 63.7947 20.0746L47.7307 34.6849Z" fill="#E58F00"/>
<path fill-rule="evenodd" clip-rule="evenodd" d="M51.1304 19.0321L50.7578 12.8188L50.3853 19.0322L47.9549 16.8768L50.1103 19.3071L43.897 19.6797L50.1102 20.0522L47.9549 22.4825L50.3853 20.3271L50.7578 26.5405L51.1304 20.3272L53.5606 22.4825L51.4053 20.0522L57.6187 19.6797L51.4053 19.3071L53.5606 16.8768L51.1304 19.0321Z" fill="white"/>
<g filter="url(#filter2_dd_32_1044)">
<path d="M30.0159 2.61322C30.7467 0.36395 33.9288 0.363952 34.6597 2.61323L35.6445 5.64417C35.9713 6.65008 36.9087 7.33112 37.9664 7.33112H41.1533C43.5183 7.33112 44.5016 10.3575 42.5883 11.7476L40.01 13.6209C39.1544 14.2425 38.7963 15.3445 39.1231 16.3504L40.108 19.3814C40.8388 21.6306 38.2644 23.501 36.351 22.1109L33.7728 20.2377C32.9171 19.616 31.7584 19.616 30.9028 20.2377L28.3245 22.1109C26.4111 23.501 23.8367 21.6306 24.5676 19.3814L25.5524 16.3504C25.8792 15.3445 25.5212 14.2425 24.6655 13.6209L22.0872 11.7476C20.1739 10.3575 21.1572 7.33112 23.5222 7.33112H26.7092C27.7668 7.33112 28.7042 6.65007 29.0311 5.64417L30.0159 2.61322Z" fill="#FFD600"/>
<path d="M30.0159 2.61322C30.7467 0.36395 33.9288 0.363952 34.6597 2.61323L35.6445 5.64417C35.9713 6.65008 36.9087 7.33112 37.9664 7.33112H41.1533C43.5183 7.33112 44.5016 10.3575 42.5883 11.7476L40.01 13.6209C39.1544 14.2425 38.7963 15.3445 39.1231 16.3504L40.108 19.3814C40.8388 21.6306 38.2644 23.501 36.351 22.1109L33.7728 20.2377C32.9171 19.616 31.7584 19.616 30.9028 20.2377L28.3245 22.1109C26.4111 23.501 23.8367 21.6306 24.5676 19.3814L25.5524 16.3504C25.8792 15.3445 25.5212 14.2425 24.6655 13.6209L22.0872 11.7476C20.1739 10.3575 21.1572 7.33112 23.5222 7.33112H26.7092C27.7668 7.33112 28.7042 6.65007 29.0311 5.64417L30.0159 2.61322Z" stroke="#FBFF4A" stroke-width="0.374671"/>
</g>
<path opacity="0.3" fill-rule="evenodd" clip-rule="evenodd" d="M25.2507 21.9462C24.5873 21.3511 24.2348 20.4055 24.5676 19.3813L25.5524 16.3504C25.5546 16.3436 25.5568 16.3367 25.559 16.3299L36.4997 6.84145C36.9128 7.15185 37.4238 7.3311 37.9664 7.3311H41.1533C41.2079 7.3311 41.2617 7.33271 41.3147 7.33587L25.2507 21.9462Z" fill="#E58F00"/>
<path fill-rule="evenodd" clip-rule="evenodd" d="M28.6499 6.29328L28.2774 0.0800076L27.9048 6.29342L25.4745 4.13803L27.6298 6.56833L21.4165 6.94088L27.6298 7.31343L25.4745 9.7437L27.9048 7.5883L28.2774 13.8018L28.6499 7.58844L31.0801 9.7437L28.9248 7.31344L35.1383 6.94088L28.9248 6.56832L31.0801 4.13803L28.6499 6.29328Z" fill="white"/>
<defs>
<filter id="filter0_dd_32_1044" x="0.65625" y="13.4777" width="22.8984" height="26.5335" filterUnits="userSpaceOnUse" color-interpolation-filters="sRGB">
<feFlood flood-opacity="0" result="BackgroundImageFix"/>
<feColorMatrix in="SourceAlpha" type="matrix" values="0 0 0 0 0 0 0 0 0 0 0 0 0 0 0 0 0 0 127 0" result="hardAlpha"/>
<feOffset dy="4.49605"/>
<feComposite in2="hardAlpha" operator="out"/>
<feColorMatrix type="matrix" values="0 0 0 0 0 0 0 0 0 0 0 0 0 0 0 0 0 0 0.25 0"/>
<feBlend mode="normal" in2="BackgroundImageFix" result="effect1_dropShadow_32_1044"/>
<feColorMatrix in="SourceAlpha" type="matrix" values="0 0 0 0 0 0 0 0 0 0 0 0 0 0 0 0 0 0 127 0" result="hardAlpha"/>
<feOffset dy="2.24802"/>
<feComposite in2="hardAlpha" operator="out"/>
<feColorMatrix type="matrix" values="0 0 0 0 0.9 0 0 0 0 0.560377 0 0 0 0 0 0 0 0 1 0"/>
<feBlend mode="normal" in2="effect1_dropShadow_32_1044" result="effect2_dropShadow_32_1044"/>
<feBlend mode="normal" in="SourceGraphic" in2="effect2_dropShadow_32_1044" result="shape"/>
</filter>
<filter id="filter1_dd_32_1044" x="43.3687" y="13.4777" width="22.8984" height="26.5335" filterUnits="userSpaceOnUse" color-interpolation-filters="sRGB">
<feFlood flood-opacity="0" result="BackgroundImageFix"/>
<feColorMatrix in="SourceAlpha" type="matrix" values="0 0 0 0 0 0 0 0 0 0 0 0 0 0 0 0 0 0 127 0" result="hardAlpha"/>
<feOffset dy="4.49605"/>
<feComposite in2="hardAlpha" operator="out"/>
<feColorMatrix type="matrix" values="0 0 0 0 0 0 0 0 0 0 0 0 0 0 0 0 0 0 0.25 0"/>
<feBlend mode="normal" in2="BackgroundImageFix" result="effect1_dropShadow_32_1044"/>
<feColorMatrix in="SourceAlpha" type="matrix" values="0 0 0 0 0 0 0 0 0 0 0 0 0 0 0 0 0 0 127 0" result="hardAlpha"/>
<feOffset dy="2.24802"/>
<feComposite in2="hardAlpha" operator="out"/>
<feColorMatrix type="matrix" values="0 0 0 0 0.9 0 0 0 0 0.560377 0 0 0 0 0 0 0 0 1 0"/>
<feBlend mode="normal" in2="effect1_dropShadow_32_1044" result="effect2_dropShadow_32_1044"/>
<feBlend mode="normal" in="SourceGraphic" in2="effect2_dropShadow_32_1044" result="shape"/>
</filter>
<filter id="filter2_dd_32_1044" x="20.8887" y="0.738892" width="22.8984" height="26.5335" filterUnits="userSpaceOnUse" color-interpolation-filters="sRGB">
<feFlood flood-opacity="0" result="BackgroundImageFix"/>
<feColorMatrix in="SourceAlpha" type="matrix" values="0 0 0 0 0 0 0 0 0 0 0 0 0 0 0 0 0 0 127 0" result="hardAlpha"/>
<feOffset dy="4.49605"/>
<feComposite in2="hardAlpha" operator="out"/>
<feColorMatrix type="matrix" values="0 0 0 0 0 0 0 0 0 0 0 0 0 0 0 0 0 0 0.25 0"/>
<feBlend mode="normal" in2="BackgroundImageFix" result="effect1_dropShadow_32_1044"/>
<feColorMatrix in="SourceAlpha" type="matrix" values="0 0 0 0 0 0 0 0 0 0 0 0 0 0 0 0 0 0 127 0" result="hardAlpha"/>
<feOffset dy="2.24802"/>
<feComposite in2="hardAlpha" operator="out"/>
<feColorMatrix type="matrix" values="0 0 0 0 0.9 0 0 0 0 0.560377 0 0 0 0 0 0 0 0 1 0"/>
<feBlend mode="normal" in2="effect1_dropShadow_32_1044" result="effect2_dropShadow_32_1044"/>
<feBlend mode="normal" in="SourceGraphic" in2="effect2_dropShadow_32_1044" result="shape"/>
</filter>
</defs>
</svg>
