<svg width="37" height="33" viewBox="0 0 37 33" fill="none" xmlns="http://www.w3.org/2000/svg">
<g filter="url(#filter0_dd_636_1491)">
<rect x="22.5779" y="8.43921" width="5.80475" height="15.0923" transform="rotate(45 22.5779 8.43921)" fill="#FFEA7C"/>
<path d="M22.5779 8.43921L26.6825 12.5438L27.7012 11.5251C28.4822 10.744 28.4822 9.47771 27.7012 8.69666L26.425 7.42051C25.644 6.63946 24.3776 6.63946 23.5966 7.42051L22.5779 8.43921Z" fill="#FF7CCB"/>
<path d="M10.4352 24.6865L16.0106 23.2157L11.9061 19.1111L10.4352 24.6865Z" fill="#FFDDBD"/>
<path d="M23.6724 9.53369L25.5879 11.4492L14.9161 22.121L12.9799 22.1417L13.0006 20.2055L23.6724 9.53369Z" fill="#969AFF"/>
<path d="M11.5377 20.5368L13.003 20.2111L11.8959 19.104L11.5377 20.5368Z" fill="#FFEA7C"/>
<path d="M14.5904 23.5894L16.009 23.2172L14.9019 22.1101L14.5904 23.5894Z" fill="#FFEA7C"/>
<path d="M10.0792 25.0793L11.7413 24.3222L10.7838 23.3647L10.0792 25.0793Z" fill="#787878"/>
</g>
<defs>
<filter id="filter0_dd_636_1491" x="10.0792" y="6.83472" width="18.2077" height="22.2446" filterUnits="userSpaceOnUse" color-interpolation-filters="sRGB">
<feFlood flood-opacity="0" result="BackgroundImageFix"/>
<feColorMatrix in="SourceAlpha" type="matrix" values="0 0 0 0 0 0 0 0 0 0 0 0 0 0 0 0 0 0 127 0" result="hardAlpha"/>
<feOffset dy="4"/>
<feComposite in2="hardAlpha" operator="out"/>
<feColorMatrix type="matrix" values="0 0 0 0 0 0 0 0 0 0 0 0 0 0 0 0 0 0 0.5 0"/>
<feBlend mode="normal" in2="BackgroundImageFix" result="effect1_dropShadow_636_1491"/>
<feColorMatrix in="SourceAlpha" type="matrix" values="0 0 0 0 0 0 0 0 0 0 0 0 0 0 0 0 0 0 127 0" result="hardAlpha"/>
<feOffset dy="2"/>
<feComposite in2="hardAlpha" operator="out"/>
<feColorMatrix type="matrix" values="0 0 0 0 0.941667 0 0 0 0 0.728222 0 0 0 0 0.408056 0 0 0 1 0"/>
<feBlend mode="normal" in2="effect1_dropShadow_636_1491" result="effect2_dropShadow_636_1491"/>
<feBlend mode="normal" in="SourceGraphic" in2="effect2_dropShadow_636_1491" result="shape"/>
</filter>
</defs>
</svg>
