<svg width="27" height="29" viewBox="0 0 27 29" fill="none" xmlns="http://www.w3.org/2000/svg">
<g clip-path="url(#clip0_210_3886)">
<path d="M26.9999 14.5146C26.9999 6.78265 20.9557 0.514587 13.4999 0.514587C6.04408 0.514587 -0.00012207 6.78254 -0.00012207 14.5146C-0.00012207 21.5023 4.93666 27.2943 11.3905 28.3445V18.5615H7.96277V14.5146H11.3905V11.4302C11.3905 7.92146 13.406 5.98334 16.4896 5.98334C17.9667 5.98334 19.5116 6.25677 19.5116 6.25677V9.70209H17.8093C16.1322 9.70209 15.6093 10.7813 15.6093 11.8885V14.5146H19.3534L18.7549 18.5615H15.6093V28.3445C22.0631 27.2943 26.9999 21.5024 26.9999 14.5146Z" fill="#1877F2"/>
<path d="M18.7549 18.5615L19.3534 14.5146H15.6093V11.8885C15.6093 10.7812 16.1323 9.70209 17.8093 9.70209H19.5116V6.25677C19.5116 6.25677 17.9667 5.98334 16.4896 5.98334C13.406 5.98334 11.3905 7.92146 11.3905 11.4302V14.5146H7.96277V18.5615H11.3905V28.3445C12.0883 28.4579 12.7936 28.5148 13.4999 28.5146C14.2062 28.5148 14.9115 28.4579 15.6093 28.3445V18.5615H18.7549Z" fill="white"/>
</g>
<defs>
<clipPath id="clip0_210_3886">
<rect width="27" height="28" fill="white" transform="translate(-0.00012207 0.514587)"/>
</clipPath>
</defs>
</svg>
