<svg width="25" height="33" viewBox="0 0 25 33" fill="none" xmlns="http://www.w3.org/2000/svg">
<g filter="url(#filter0_d_226_499)">
<path d="M2.21558 12.7188C2.21558 6.80973 7.00578 2.01953 12.9148 2.01953C18.8238 2.01953 23.614 6.80973 23.614 12.7188V29.2854H2.21558V12.7188Z" fill="#D77661"/>
<path d="M24.4822 8.53075L17.7113 0.905861C17.5687 0.747885 17.3946 0.621497 17.2003 0.534827C17.0059 0.448156 16.7956 0.403121 16.5828 0.402618H4.38295C3.87627 0.396575 3.37337 0.490396 2.90296 0.678725C2.43255 0.867054 2.00384 1.1462 1.64131 1.50023C1.27879 1.85425 0.989558 2.27622 0.790127 2.74204C0.590697 3.20785 0.484976 3.70839 0.479004 4.21506V27.0897C0.484976 27.5964 0.590697 28.097 0.790127 28.5628C0.989558 29.0286 1.27879 29.4506 1.64131 29.8046C2.00384 30.1586 2.43255 30.4378 2.90296 30.6261C3.37337 30.8144 3.87627 30.9082 4.38295 30.9022H20.9747C21.4814 30.9082 21.9843 30.8144 22.4547 30.6261C22.9251 30.4378 23.3538 30.1586 23.7164 29.8046C24.0789 29.4506 24.3681 29.0286 24.5675 28.5628C24.767 28.097 24.8727 27.5964 24.8787 27.0897V9.55249C24.8777 9.17455 24.7364 8.81043 24.4822 8.53075ZM8.1039 15.6524H12.6788C13.0833 15.6524 13.4712 15.8131 13.7572 16.0991C14.0431 16.385 14.2038 16.7729 14.2038 17.1774C14.2038 17.5818 14.0431 17.9697 13.7572 18.2557C13.4712 18.5417 13.0833 18.7024 12.6788 18.7024H8.1039C7.69945 18.7024 7.31156 18.5417 7.02557 18.2557C6.73959 17.9697 6.57892 17.5818 6.57892 17.1774C6.57892 16.7729 6.73959 16.385 7.02557 16.0991C7.31156 15.8131 7.69945 15.6524 8.1039 15.6524ZM17.2538 24.8023H8.1039C7.69945 24.8023 7.31156 24.6416 7.02557 24.3556C6.73959 24.0696 6.57892 23.6817 6.57892 23.2773C6.57892 22.8728 6.73959 22.485 7.02557 22.199C7.31156 21.913 7.69945 21.7523 8.1039 21.7523H17.2538C17.6582 21.7523 18.0461 21.913 18.3321 22.199C18.6181 22.485 18.7787 22.8728 18.7787 23.2773C18.7787 23.6817 18.6181 24.0696 18.3321 24.3556C18.0461 24.6416 17.6582 24.8023 17.2538 24.8023ZM16.8115 9.55249C16.4971 9.52153 16.2075 9.36833 16.005 9.12588C15.8025 8.88343 15.7033 8.57113 15.7288 8.25626V3.45258L21.4322 9.55249H16.8115Z" fill="#FFA592"/>
</g>
<defs>
<filter id="filter0_d_226_499" x="0.479004" y="0.402344" width="24.3997" height="32.5001" filterUnits="userSpaceOnUse" color-interpolation-filters="sRGB">
<feFlood flood-opacity="0" result="BackgroundImageFix"/>
<feColorMatrix in="SourceAlpha" type="matrix" values="0 0 0 0 0 0 0 0 0 0 0 0 0 0 0 0 0 0 127 0" result="hardAlpha"/>
<feOffset dy="2"/>
<feComposite in2="hardAlpha" operator="out"/>
<feColorMatrix type="matrix" values="0 0 0 0 0.841667 0 0 0 0 0.462075 0 0 0 0 0.37875 0 0 0 1 0"/>
<feBlend mode="normal" in2="BackgroundImageFix" result="effect1_dropShadow_226_499"/>
<feBlend mode="normal" in="SourceGraphic" in2="effect1_dropShadow_226_499" result="shape"/>
</filter>
</defs>
</svg>
