<svg width="159" height="136" viewBox="0 0 159 136" fill="none" xmlns="http://www.w3.org/2000/svg">
<g filter="url(#filter0_d_396_7933)">
<path d="M78.5263 10.0929C81.3874 18.8503 74.7272 19.6222 71.0235 19.6222C60.9605 19.6222 77.0011 -0.134478 59.4264 7.17001C59.2401 7.0575 59.0822 6.96219 58.9665 6.87737C57.7658 5.99675 62.2878 0.695322 69.0445 0.695322C75.8013 0.695322 76.9461 5.25592 78.5263 10.0929Z" fill="black"/>
<path d="M80.6934 17.2406C80.6934 19.7376 80.6934 21.7617 73.5207 21.7617C66.348 21.7617 66.348 19.7376 66.348 17.2406C66.348 14.7437 65.5359 12.7196 73.5207 12.7196C81.5055 12.7196 80.6934 14.7437 80.6934 17.2406Z" fill="#FF8A00"/>
<path d="M84.6117 20.5427C84.6117 21.919 84.6117 21.919 73.5206 21.919C62.4296 21.919 62.4296 21.919 62.4296 20.5427C62.4296 17.3676 67.3903 14.7936 73.5206 14.7936C79.651 14.7936 84.6117 17.3676 84.6117 20.5427Z" fill="black"/>
<path d="M51.1143 54.8197C57.1204 60.8182 60.9105 67.0224 62.1939 72.1972C63.4803 77.3837 62.2387 81.471 58.3199 83.345C54.401 85.2191 48.4288 84.5816 41.8588 81.9218C35.3037 79.268 28.238 74.6302 22.2319 68.6318C16.2258 62.6333 12.4357 56.4291 11.1522 51.2543C9.86586 46.0678 11.1074 41.9806 15.0263 40.1065C18.9451 38.2324 24.9174 38.8699 31.4873 41.5297C38.0425 44.1835 45.1082 48.8213 51.1143 54.8197Z" fill="#0075FF" fill-opacity="0.3" stroke="#00C2FF" stroke-width="0.548653"/>
<path d="M54.8252 77.9125C52.4469 75.5019 48.3239 71.4187 44.034 67.3652M20.8761 46.5285C22.1799 47.921 25.5677 51.2691 30.1606 55.198M44.034 67.3652C40.371 63.9041 36.5862 60.4648 33.662 58.107C32.4336 57.1166 31.2624 56.1406 30.1606 55.198M44.034 67.3652C38.6661 65.4472 27.2249 61.611 24.4032 61.611M30.1606 55.198L31.4575 44.2432" stroke="#00C2FF" stroke-width="0.548653" stroke-linecap="round"/>
<path d="M74.1064 54.82C68.1003 60.8184 64.3102 67.0226 63.0267 72.1975C61.7403 77.384 62.9819 81.4712 66.9007 83.3453C70.8196 85.2193 76.7918 84.5819 83.3618 81.9221C89.917 79.2682 96.9826 74.6305 102.989 68.632C108.995 62.6336 112.785 56.4294 114.068 51.2545C115.355 46.068 114.113 41.9808 110.194 40.1067C106.276 38.2327 100.303 38.8701 93.7333 41.5299C87.1782 44.1837 80.1125 48.8215 74.1064 54.82Z" fill="#0075FF" fill-opacity="0.3" stroke="#00C2FF" stroke-width="0.548653"/>
<path d="M70.3955 77.9125C72.7738 75.5019 76.8968 71.4187 81.1867 67.3652M104.345 46.5285C103.041 47.921 99.653 51.2691 95.0602 55.198M81.1867 67.3652C84.8497 63.9041 88.6345 60.4648 91.5587 58.107C92.7871 57.1166 93.9583 56.1406 95.0602 55.198M81.1867 67.3652C86.5546 65.4472 97.9958 61.611 100.818 61.611M95.0602 55.198L93.7632 44.2432" stroke="#00C2FF" stroke-width="0.548653" stroke-linecap="round"/>
<path d="M39.417 74.0984C45.2502 71.973 50.531 71.3814 54.3517 72.1301C58.1842 72.8811 60.4843 74.9622 60.514 78.1033C60.5437 81.2444 58.2985 84.9816 54.5064 88.5108C50.726 92.029 45.4703 95.2764 39.6371 97.4018C33.8038 99.5272 28.523 100.119 24.7023 99.3702C20.8698 98.6191 18.5697 96.538 18.54 93.3969C18.5103 90.2559 20.7555 86.5187 24.5476 82.9895C28.328 79.4712 33.5837 76.2238 39.417 74.0984Z" fill="#0075FF" fill-opacity="0.3" stroke="#00C2FF" stroke-width="0.548653"/>
<path d="M55.8948 78.7152C53.558 79.5472 49.5705 81.0191 45.551 82.6111M24.5464 91.5285C25.8746 91.0944 29.1464 89.8827 33.1771 88.0511M45.551 82.6111C42.1189 83.9704 38.6635 85.4173 36.1927 86.628C35.1547 87.1366 34.144 87.6117 33.1771 88.0511M45.551 82.6111C42.615 85.5801 36.5246 91.9863 35.6505 93.8593M33.1771 88.0511L26.3072 83.7968" stroke="#00C2FF" stroke-width="0.548653" stroke-linecap="round"/>
<path d="M85.804 74.0984C79.9707 71.973 74.69 71.3814 70.8692 72.1301C67.0367 72.8811 64.7366 74.9622 64.7069 78.1033C64.6773 81.2444 66.9224 84.9816 70.7145 88.5108C74.4949 92.029 79.7506 95.2764 85.5839 97.4018C91.4172 99.5272 96.6979 100.119 100.519 99.3702C104.351 98.6191 106.651 96.538 106.681 93.3969C106.711 90.2559 104.465 86.5187 100.673 82.9895C96.893 79.4712 91.6373 76.2238 85.804 74.0984Z" fill="#0075FF" fill-opacity="0.3" stroke="#00C2FF" stroke-width="0.548653"/>
<path d="M69.3262 78.7152C71.6631 79.5472 75.6506 81.0191 79.6701 82.6111M100.675 91.5285C99.3465 91.0944 96.0747 89.8827 92.044 88.0511M79.6701 82.6111C83.1022 83.9704 86.5576 85.4173 89.0284 86.628C90.0664 87.1366 91.077 87.6117 92.044 88.0511M79.6701 82.6111C82.6061 85.5801 88.6965 91.9863 89.5706 93.8593M92.044 88.0511L98.9139 83.7968" stroke="#00C2FF" stroke-width="0.548653" stroke-linecap="round"/>
<path d="M84.5125 100.09C75.0341 95.4473 56.3832 99.6062 48.2425 102.266C43.4065 90.4661 53.1591 79.7787 58.6399 75.9099H78.951L84.5125 100.09Z" fill="#25008D"/>
<path fill-rule="evenodd" clip-rule="evenodd" d="M91.9363 97.1964C94.5413 96.566 96.142 93.9433 95.5116 91.3384C94.0461 85.2825 90.1036 80.8831 86.0277 78.1073C82.0906 75.4259 77.3421 73.8002 73.5112 74.0632C70.8373 74.2467 68.8186 76.5631 69.0022 79.2369C69.1857 81.9108 71.5021 83.9295 74.1759 83.7459C75.176 83.6773 77.7902 84.2397 80.5645 86.1291C83.2001 87.9241 85.3178 90.4782 86.0783 93.6211C86.7087 96.226 89.3314 97.8267 91.9363 97.1964Z" fill="#F5C002"/>
<path d="M26.2216 127.385L49.7912 112.981L52.41 119.529L26.2216 127.385Z" fill="black"/>
<path fill-rule="evenodd" clip-rule="evenodd" d="M79.4824 101.679C78.7753 96.6223 80.4567 90.4509 82.2661 85.6765C82.7891 84.2966 83.0744 82.8068 83.0744 81.2528C83.0744 74.1238 77.0704 68.3447 69.6641 68.3447C62.2578 68.3447 56.2538 74.1238 56.2538 81.2528C56.2538 82.7888 55.2061 84.2504 53.7051 84.5769C44.2506 86.634 37.1936 94.729 37.1936 104.402C37.1936 115.63 46.7025 124.732 58.4324 124.732C70.1623 124.732 79.6712 115.63 79.6712 104.402C79.6712 103.478 79.6069 102.57 79.4824 101.679Z" fill="#FFD600"/>
<path fill-rule="evenodd" clip-rule="evenodd" d="M79.6671 104.877C62.4545 110.354 48.4327 102.901 39.7631 94.7018C38.5885 96.7693 37.7778 99.0536 37.4132 101.476C46.7618 109.856 60.7313 116.964 77.5036 113.362C78.8238 110.792 79.594 107.917 79.6671 104.877ZM74.044 118.186C58.0875 121.982 44.6995 113.872 37.3083 106.512C38.4119 116.748 47.449 124.731 58.434 124.731C64.6062 124.731 70.1635 122.21 74.044 118.186ZM43.6684 89.787C51.9921 96.8888 64.5838 102.816 79.3282 98.5294C79.4109 95.7044 80.023 92.712 80.8414 89.9113C68.1258 95.1343 57.1773 91.3686 49.5717 85.9192C47.3766 86.8853 45.3831 88.1991 43.6684 89.787Z" fill="black"/>
<path d="M46.0953 78.6084C49.6564 71.6561 57.8515 70.5599 62.3487 71.2915C58.6343 74.7088 62.8736 83.9366 62.587 92.2247C62.2591 101.704 60.9145 105.491 60.1224 107.373C59.3303 109.255 52.8941 107.001 48.0454 103.95C43.1968 100.899 41.232 88.103 46.0953 78.6084Z" fill="#4E17EA"/>
<path d="M83.3591 78.9181C80.7397 70.8479 77.1774 70.4875 74.6331 70.5727C79.132 74.5009 81.4787 80.4929 80.3088 88.138C79.1278 95.8556 77.4074 102.64 77.7392 104.54C78.071 106.44 81.9759 105.681 84.8499 103.434C87.7239 101.188 86.5284 88.6827 83.3591 78.9181Z" fill="#4E17EA"/>
<path d="M50.5567 100.549C49.2261 101.206 47.4082 99.3079 46.6656 98.2766C47.0467 97.501 48.108 96.2605 49.3041 97.5039C50.7992 99.0582 52.22 99.7266 50.5567 100.549Z" fill="#F5C002"/>
<path fill-rule="evenodd" clip-rule="evenodd" d="M45.6949 103.181C43.1558 104.039 40.4019 102.677 39.5438 100.138C37.5489 94.235 38.533 88.4101 40.4967 83.8866C42.3936 79.5171 45.5402 75.6068 48.9196 73.7835C51.2783 72.5108 54.2221 73.3912 55.4947 75.7499C56.7673 78.1086 55.8869 81.0524 53.5282 82.325C52.646 82.801 50.7361 84.6726 49.3995 87.7515C48.1297 90.6766 47.7031 93.9668 48.7385 97.0303C49.5966 99.5693 48.2339 102.323 45.6949 103.181Z" fill="#FFDE31"/>
<path d="M94.695 50.5471C94.695 54.3889 94.695 57.5033 100.034 57.5033C103.876 57.5033 106.294 54.3889 106.294 50.5471C106.294 46.7053 110.136 38.3076 106.294 38.3076C102.452 38.3076 94.695 46.7053 94.695 50.5471Z" fill="#F5C002"/>
<path d="M106.851 41.8262C104.842 43.1657 100.582 46.4878 99.6174 49.0597C101.537 48.7471 104.868 49.0061 102.832 52.5425" stroke="#A68D0B" stroke-width="1.09731" stroke-linecap="round"/>
<path d="M103.289 52.8704C102.834 52.8704 102.466 53.2388 102.466 53.6934C102.466 54.1479 102.834 54.5163 103.289 54.5163V52.8704ZM105.201 58.0055C105.201 59.0644 104.927 59.9843 104.528 60.6138C104.123 61.2533 103.664 61.4946 103.289 61.4946V63.1406C104.425 63.1406 105.334 62.4166 105.918 61.4954C106.509 60.5642 106.847 59.3281 106.847 58.0055H105.201ZM103.289 61.4946C102.471 61.4946 100.685 60.1632 101.448 57.2846L99.8572 56.8626C98.9003 60.47 101.085 63.1406 103.289 63.1406V61.4946ZM103.289 54.5163C103.664 54.5163 104.123 54.7577 104.528 55.3972C104.927 56.0266 105.201 56.9466 105.201 58.0055H106.847C106.847 56.6829 106.509 55.4468 105.918 54.5155C105.334 53.5943 104.425 52.8704 103.289 52.8704V54.5163Z" fill="#FF8A00"/>
<path d="M83.0493 65.9629C83.0493 60.4695 78.1299 56.0162 72.0617 56.0162C65.9934 56.0162 61.074 60.4695 61.074 65.9629C61.074 71.4564 60.5719 75.9098 72.0617 75.9097C84.1269 75.9095 83.0493 71.4564 83.0493 65.9629Z" fill="#CFB00C"/>
<path d="M101.278 41.0129C101.278 60.7629 105.167 76.4222 72.4424 74.8666C48.6894 73.7375 43.291 60.7629 43.291 41.0129C43.291 21.2629 63.9006 18.3965 73.6811 18.3965C87.3049 18.3965 101.278 21.2629 101.278 41.0129Z" fill="#FFD600"/>
<circle cx="68.281" cy="51.6424" r="3.41141" fill="black"/>
<circle cx="93.7671" cy="51.6425" r="3.37118" fill="black"/>
<path d="M85.6117 56.1265C86.5843 56.1265 87.4036 56.9441 87.0314 57.8427C86.8061 58.3868 86.4757 58.8812 86.0593 59.2976C85.6429 59.714 85.1485 60.0443 84.6044 60.2697C84.0603 60.4951 83.4772 60.6111 82.8882 60.6111C82.2993 60.6111 81.7162 60.4951 81.1721 60.2697C80.628 60.0443 80.1336 59.714 79.7172 59.2976C79.3008 58.8812 78.9704 58.3868 78.7451 57.8427C78.3729 56.9441 79.1921 56.1265 80.1648 56.1265H82.8882H85.6117Z" fill="#FF9900"/>
<path d="M62.6107 48.2306C64.0004 46.2228 66.0918 44.9996 69.2428 44.9996" stroke="black" stroke-width="2.74326" stroke-linecap="round"/>
<path d="M98.5281 48.2306C97.1384 46.2228 95.047 44.9996 91.896 44.9996" stroke="black" stroke-width="2.74326" stroke-linecap="round"/>
<path d="M75.4901 64.1527C77.7963 64.9214 84.1512 65.2289 88.0462 63.384" stroke="black" stroke-width="2.19461" stroke-linecap="round"/>
<circle cx="70.2527" cy="51.6422" r="1.00893" fill="white"/>
<circle cx="95.5239" cy="51.6422" r="1.00893" fill="white"/>
<path d="M49.3301 51.9813C48.5145 56.6717 47.8533 60.474 41.3352 59.3406C36.6449 58.525 34.3533 54.2092 35.1689 49.5189C35.9845 44.8285 33.0768 33.7603 37.7672 34.5759C42.4576 35.3915 50.1457 47.2909 49.3301 51.9813Z" fill="#FFD600"/>
<path d="M38.3467 40.0095C40.5154 42.0715 45.0106 47.0317 45.6421 50.3764C43.3644 49.5872 39.2427 49.1962 40.9778 53.9459" stroke="#CFB00C" stroke-width="1.09731" stroke-linecap="round"/>
<path d="M43.6249 59.315C45.7106 58.9475 49.7753 57.082 49.3487 52.5598" stroke="#CFB00C" stroke-width="1.09731" stroke-linecap="round"/>
<path d="M42.8135 53.9702C42.3657 53.8924 41.9396 54.1922 41.8617 54.64C41.7839 55.0878 42.0838 55.514 42.5316 55.5918L42.8135 53.9702ZM44.2858 60.4853C44.0556 61.8092 43.5118 62.9101 42.862 63.6255C42.2042 64.3496 41.5302 64.5946 40.9826 64.4994L40.7007 66.121C41.9975 66.3465 43.1982 65.7033 44.0803 64.7322C44.9705 63.7523 45.632 62.351 45.9074 60.7673L44.2858 60.4853ZM40.9826 64.4994C39.8209 64.2973 37.9028 62.1266 39.4839 58.6924L37.9887 58.0041C36.0924 62.1232 38.1737 65.6816 40.7007 66.121L40.9826 64.4994ZM42.5316 55.5918C43.0791 55.6871 43.6308 56.1451 44.0056 57.0489C44.3758 57.9416 44.516 59.1614 44.2858 60.4853L45.9074 60.7673C46.1828 59.1836 46.0331 57.6412 45.526 56.4183C45.0234 55.2065 44.1103 54.1957 42.8135 53.9702L42.5316 55.5918Z" fill="#FF8A00"/>
<path d="M71.2616 30.3362C71.4944 26.6195 73.0079 18.5358 77.1998 15.9341" stroke="black" stroke-width="2.19461" stroke-linecap="round"/>
<path d="M89.9877 31.7526C90.2205 28.3059 91.734 20.8091 95.9259 18.3964" stroke="black" stroke-width="2.19461" stroke-linecap="round"/>
<circle cx="97.9361" cy="17.3922" r="1.64596" fill="#FFD600"/>
<circle cx="78.0051" cy="14.9056" r="1.64596" fill="#FFD600"/>
<path fill-rule="evenodd" clip-rule="evenodd" d="M124.745 52.4762C141.01 52.4762 154.197 40.8846 154.197 26.5858C154.197 12.2869 141.01 0.695312 124.745 0.695312C108.479 0.695312 95.2926 12.2869 95.2926 26.5858C95.2926 32.0372 97.2092 37.0952 100.482 41.2673C97.7559 45.643 92.7108 54.1367 89.835 59.0202L105.013 45.8068C110.235 49.9521 117.154 52.4762 124.745 52.4762Z" fill="white"/>
<g filter="url(#filter1_dd_396_7933)">
<path d="M122.568 37.5581L112.053 26.8075C110.747 25.4728 110.747 23.3306 112.053 21.9959L122.568 11.2452C124.707 9.05895 128.403 10.5831 128.403 13.651V35.1523C128.403 38.2202 124.707 39.7443 122.568 37.5581Z" fill="#ADB8BC"/>
<path d="M117.074 31.9841H110.829C109.728 31.9841 108.827 31.0776 108.827 29.9697V18.8339C108.827 17.726 109.728 16.8195 110.829 16.8195H117.074L117.074 31.9841Z" fill="#597B91"/>
<path d="M133.64 32.7058C133.338 32.7058 133.043 32.5554 132.87 32.2803C132.601 31.853 132.726 31.2866 133.151 31.0152C134.949 29.866 136.233 27.9036 136.585 25.7658C137.071 22.8148 135.703 19.7321 133.181 18.0948C132.758 17.8204 132.636 17.2532 132.909 16.8278C133.182 16.4023 133.745 16.2798 134.168 16.5543C137.291 18.5818 138.985 22.4041 138.382 26.0654C137.947 28.7095 136.356 31.1385 134.127 32.5629C133.981 32.6562 133.812 32.7058 133.64 32.7058ZM137.133 35.2328C140.106 33.3336 142.227 30.0941 142.808 26.5672C143.612 21.6853 141.353 16.5884 137.188 13.8845C136.765 13.61 136.201 13.7326 135.929 14.158C135.656 14.5834 135.778 15.1507 136.2 15.425C139.765 17.7387 141.698 22.096 141.011 26.2677C140.514 29.2881 138.699 32.0611 136.157 33.6853C135.733 33.9565 135.607 34.5229 135.877 34.9504C135.941 35.0521 136.024 35.1401 136.122 35.2093C136.22 35.2786 136.33 35.3277 136.447 35.3539C136.564 35.3802 136.684 35.383 136.802 35.3622C136.92 35.3414 137.033 35.2974 137.133 35.2328ZM131.592 28.9481C132.833 28.1551 133.683 26.857 133.925 25.3864C134.256 23.3775 133.327 21.2809 131.615 20.1693C131.192 19.895 130.629 20.0174 130.356 20.4428C130.084 20.8682 130.205 21.4355 130.628 21.7099C131.739 22.4311 132.342 23.7882 132.128 25.0868C131.973 26.0294 131.408 26.8942 130.616 27.4004C130.191 27.6718 130.065 28.2382 130.335 28.6655C130.417 28.796 130.531 28.9035 130.665 28.9779C130.8 29.0523 130.951 29.0912 131.105 29.091C131.277 29.0909 131.446 29.0414 131.592 28.9481Z" fill="#7D9DAF"/>
</g>
</g>
<defs>
<filter id="filter0_d_396_7933" x="6.34961" y="0.695312" width="151.847" height="134.69" filterUnits="userSpaceOnUse" color-interpolation-filters="sRGB">
<feFlood flood-opacity="0" result="BackgroundImageFix"/>
<feColorMatrix in="SourceAlpha" type="matrix" values="0 0 0 0 0 0 0 0 0 0 0 0 0 0 0 0 0 0 127 0" result="hardAlpha"/>
<feOffset dy="4"/>
<feGaussianBlur stdDeviation="2"/>
<feComposite in2="hardAlpha" operator="out"/>
<feColorMatrix type="matrix" values="0 0 0 0 0 0 0 0 0 0 0 0 0 0 0 0 0 0 0.25 0"/>
<feBlend mode="normal" in2="BackgroundImageFix" result="effect1_dropShadow_396_7933"/>
<feBlend mode="normal" in="SourceGraphic" in2="effect1_dropShadow_396_7933" result="shape"/>
</filter>
<filter id="filter1_dd_396_7933" x="108.827" y="10.215" width="34.1417" height="30.6213" filterUnits="userSpaceOnUse" color-interpolation-filters="sRGB">
<feFlood flood-opacity="0" result="BackgroundImageFix"/>
<feColorMatrix in="SourceAlpha" type="matrix" values="0 0 0 0 0 0 0 0 0 0 0 0 0 0 0 0 0 0 127 0" result="hardAlpha"/>
<feOffset dy="2.24791"/>
<feComposite in2="hardAlpha" operator="out"/>
<feColorMatrix type="matrix" values="0 0 0 0 0 0 0 0 0 0 0 0 0 0 0 0 0 0 0.5 0"/>
<feBlend mode="normal" in2="BackgroundImageFix" result="effect1_dropShadow_396_7933"/>
<feColorMatrix in="SourceAlpha" type="matrix" values="0 0 0 0 0 0 0 0 0 0 0 0 0 0 0 0 0 0 127 0" result="hardAlpha"/>
<feOffset dy="1.31128"/>
<feComposite in2="hardAlpha" operator="out"/>
<feColorMatrix type="matrix" values="0 0 0 0 0.191667 0 0 0 0 0.308036 0 0 0 0 0.383333 0 0 0 1 0"/>
<feBlend mode="normal" in2="effect1_dropShadow_396_7933" result="effect2_dropShadow_396_7933"/>
<feBlend mode="normal" in="SourceGraphic" in2="effect2_dropShadow_396_7933" result="shape"/>
</filter>
</defs>
</svg>
