<svg width="194" height="218" viewBox="0 0 194 218" fill="none" xmlns="http://www.w3.org/2000/svg">
<path d="M119.665 54.935C121.392 18.1421 106.354 3.38481 83.1034 8.18469C30.841 18.9725 99.1672 90.9022 40.9508 87.2865C40.352 87.918 39.8447 88.4531 39.4889 88.9029C35.7961 93.5724 58.8559 109.204 84.8992 102.028C110.943 94.852 118.711 75.2571 119.665 54.935Z" fill="#020303"/>
<path d="M127.176 30.0401C127.176 34.591 127.176 38.2803 114.102 38.2803C101.029 38.2803 101.029 34.591 101.029 30.0401C101.029 25.4891 99.5488 21.7998 114.102 21.7998C128.656 21.7998 127.176 25.4891 127.176 30.0401Z" fill="#2BBD1E"/>
<path d="M79.076 90.727C88.3719 101.373 94.2365 112.382 96.2221 121.562C98.2139 130.771 96.2827 137.993 90.2572 141.298C84.2317 144.602 75.0214 143.488 64.8485 138.766C54.7072 134.058 43.7726 125.829 34.4767 115.183C25.1808 104.538 19.3161 93.5282 17.3305 84.3482C15.3388 75.1396 17.27 67.9168 23.2955 64.6127C29.3209 61.3086 38.5313 62.4219 48.7042 67.1443C58.8455 71.8521 69.7801 80.0813 79.076 90.727Z" fill="#0075FF" fill-opacity="0.3" stroke="#00C2FF"/>
<path d="M84.8755 131.687C81.1939 127.408 74.8115 120.16 68.1707 112.965M32.3223 75.9793C34.3406 78.4511 39.5849 84.3941 46.6946 91.3681M68.1707 112.965C62.5004 106.822 56.6416 100.717 52.1149 96.5317C50.2133 94.7736 48.4003 93.0412 46.6946 91.3681M68.1707 112.965C59.8612 109.561 42.1502 102.751 37.7822 102.751M46.6946 91.3681L48.7023 71.9229" stroke="#00C2FF" stroke-linecap="round"/>
<path d="M114.778 90.727C105.483 101.373 99.618 112.382 97.6324 121.562C95.6406 130.771 97.5718 137.993 103.597 141.298C109.623 144.602 118.833 143.488 129.006 138.766C139.147 134.058 150.082 125.829 159.378 115.183C168.674 104.538 174.538 93.5282 176.524 84.3482C178.516 75.1396 176.585 67.9168 170.559 64.6127C164.534 61.3086 155.323 62.4219 145.15 67.1443C135.009 71.8521 124.074 80.0813 114.778 90.727Z" fill="#0075FF" fill-opacity="0.3" stroke="#00C2FF"/>
<path d="M108.979 131.687C112.661 127.408 119.043 120.16 125.684 112.965M161.532 75.9793C159.514 78.4511 154.27 84.3941 147.16 91.3681M125.684 112.965C131.354 106.822 137.213 100.717 141.74 96.5317C143.641 94.7736 145.454 93.0412 147.16 91.3681M125.684 112.965C133.993 109.561 151.704 102.751 156.072 102.751M147.16 91.3681L145.152 71.9229" stroke="#00C2FF" stroke-linecap="round"/>
<path d="M61.0248 124.949C70.0481 121.179 78.2149 120.13 84.1219 121.458C90.0463 122.789 93.5993 126.477 93.6452 132.042C93.691 137.606 90.2229 144.227 84.361 150.483C78.5163 156.72 70.3883 162.479 61.365 166.249C52.3418 170.019 44.175 171.068 38.2679 169.741C32.3436 168.409 28.7905 164.722 28.7447 159.157C28.6989 153.592 32.167 146.971 38.0288 140.715C43.8736 134.478 52.0016 128.719 61.0248 124.949Z" fill="#0075FF" fill-opacity="0.3" stroke="#00C2FF"/>
<path d="M86.5324 133.112C82.915 134.589 76.7423 137.202 70.5201 140.028M38.005 155.856C40.0611 155.086 45.1258 152.935 51.3653 149.684M70.5201 140.028C65.2072 142.44 59.8583 145.009 56.0335 147.158C54.4267 148.06 52.8622 148.904 51.3653 149.684M70.5201 140.028C65.9753 145.298 56.5472 156.669 55.1942 159.993M51.3653 149.684L40.7307 142.132" stroke="#00C2FF" stroke-linecap="round"/>
<path d="M132.831 124.949C123.807 121.179 115.641 120.13 109.734 121.458C103.809 122.789 100.256 126.477 100.21 132.042C100.164 137.606 103.633 144.227 109.494 150.483C115.339 156.72 123.467 162.479 132.49 166.249C141.514 170.019 149.68 171.068 155.588 169.741C161.512 168.409 165.065 164.722 165.111 159.157C165.157 153.592 161.688 146.971 155.827 140.715C149.982 134.478 141.854 128.719 132.831 124.949Z" fill="#0075FF" fill-opacity="0.3" stroke="#00C2FF"/>
<path d="M107.323 133.112C110.94 134.589 117.113 137.202 123.335 140.028M155.851 155.856C153.794 155.086 148.73 152.935 142.49 149.684M123.335 140.028C128.648 142.44 133.997 145.009 137.822 147.158C139.429 148.06 140.993 148.904 142.49 149.684M123.335 140.028C127.88 145.298 137.308 156.669 138.661 159.993M142.49 149.684L153.125 142.132" stroke="#00C2FF" stroke-linecap="round"/>
<path d="M133.732 176.703C116.457 168.242 82.4626 175.822 67.625 180.669C58.8106 159.163 76.5862 139.683 86.5758 132.632H123.596L133.732 176.703Z" fill="#25008D"/>
<path fill-rule="evenodd" clip-rule="evenodd" d="M147.263 166.957C152.011 165.808 154.929 161.028 153.78 156.28C151.109 145.242 143.923 137.224 136.494 132.165C129.318 127.277 120.663 124.314 113.681 124.794C108.807 125.128 105.128 129.35 105.463 134.224C105.797 139.097 110.019 142.776 114.893 142.442C116.715 142.317 121.48 143.342 126.537 146.786C131.34 150.057 135.2 154.712 136.586 160.441C137.735 165.189 142.516 168.106 147.263 166.957Z" fill="#FFBE72"/>
<path d="M44.687 215.872L87.6461 189.619L92.4194 201.552L44.687 215.872Z" fill="black"/>
<path fill-rule="evenodd" clip-rule="evenodd" d="M124.565 175.128C123.277 165.911 126.341 154.663 129.639 145.961C130.592 143.446 131.112 140.73 131.112 137.898C131.112 124.904 120.169 114.371 106.67 114.371C93.1709 114.371 82.2278 124.904 82.2278 137.898C82.2278 140.698 80.3182 143.362 77.5824 143.957C60.3502 147.706 47.4878 162.46 47.4878 180.09C47.4878 200.555 64.8192 217.145 86.1986 217.145C107.578 217.145 124.909 200.555 124.909 180.09C124.909 178.408 124.792 176.751 124.565 175.128Z" fill="#FFD66C"/>
<path fill-rule="evenodd" clip-rule="evenodd" d="M124.901 180.956C93.5283 190.938 67.9715 177.355 52.17 162.41C50.0291 166.179 48.5515 170.342 47.887 174.757C64.926 190.032 90.3876 202.987 120.957 196.421C123.364 191.737 124.768 186.497 124.901 180.956ZM114.652 205.215C85.5687 212.132 61.1673 197.351 47.6958 183.937C49.7073 202.593 66.1787 217.143 86.2003 217.143C97.45 217.143 107.579 212.549 114.652 205.215ZM59.2879 153.452C74.4591 166.397 97.4093 177.2 124.283 169.387C124.434 164.238 125.55 158.784 127.041 153.679C103.865 163.199 83.9099 156.335 70.0476 146.403C66.0467 148.164 62.4134 150.558 59.2879 153.452Z" fill="#141F25"/>
<path d="M63.7115 133.078C70.2022 120.407 85.1389 118.409 93.3358 119.742C86.5657 125.97 94.2925 142.79 93.77 157.896C93.1724 175.174 90.7216 182.076 89.2779 185.506C87.8342 188.936 76.1034 184.828 67.2659 179.268C58.4285 173.707 54.8474 150.383 63.7115 133.078Z" fill="#2BBD1E"/>
<path d="M131.631 133.643C126.857 118.934 120.364 118.277 115.727 118.432C123.926 125.592 128.204 136.513 126.071 150.447C123.919 164.514 120.783 176.879 121.388 180.342C121.993 183.805 129.11 182.422 134.348 178.327C139.586 174.233 137.408 151.44 131.631 133.643Z" fill="#2BBD1E"/>
<path d="M71.8428 173.067C69.4175 174.265 66.1042 170.806 64.7507 168.926C65.4454 167.512 67.3797 165.251 69.5597 167.518C72.2848 170.351 74.8743 171.569 71.8428 173.067Z" fill="#FFD66C"/>
<path fill-rule="evenodd" clip-rule="evenodd" d="M62.9816 177.866C58.3539 179.43 53.3344 176.946 51.7704 172.319C48.1344 161.56 49.928 150.943 53.5071 142.699C56.9645 134.735 62.6997 127.608 68.8591 124.284C73.1582 121.965 78.5237 123.569 80.8432 127.868C83.1628 132.167 81.5581 137.533 77.2591 139.852C75.6511 140.72 72.1701 144.131 69.7339 149.743C67.4194 155.074 66.642 161.071 68.529 166.655C70.093 171.283 67.6094 176.302 62.9816 177.866Z" fill="#FFD66C"/>
<path d="M144.033 90.5863C144.033 96.2652 144.033 100.869 151.925 100.869C157.604 100.869 161.179 96.2652 161.179 90.5863C161.179 84.9075 166.858 72.4941 161.179 72.4941C155.5 72.4941 144.033 84.9075 144.033 90.5863Z" fill="#FFBE72"/>
<path d="M162.001 77.6953C159.031 79.6754 152.734 84.5861 151.309 88.3878C154.147 87.9257 159.071 88.3085 156.061 93.5359" stroke="#E1A054" stroke-width="2" stroke-linecap="round"/>
<path d="M156.736 93.7373C155.908 93.7373 155.236 94.4089 155.236 95.2373C155.236 96.0657 155.908 96.7373 156.736 96.7373V93.7373ZM159.279 101.611C159.279 103.131 158.886 104.437 158.329 105.315C157.76 106.212 157.16 106.485 156.736 106.485V109.485C158.546 109.485 159.967 108.332 160.862 106.922C161.768 105.493 162.279 103.612 162.279 101.611H159.279ZM156.736 106.485C155.766 106.485 153.194 104.748 154.289 100.619L151.389 99.8494C149.942 105.307 153.24 109.485 156.736 109.485V106.485ZM156.736 96.7373C157.16 96.7373 157.76 97.0109 158.329 97.9077C158.886 98.7861 159.279 100.092 159.279 101.611H162.279C162.279 99.6109 161.768 97.7293 160.862 96.3007C159.967 94.8906 158.546 93.7373 156.736 93.7373V96.7373Z" fill="#2BBD1E"/>
<path d="M162.823 66.4763C160.488 88.464 153.376 122.714 117.275 122.714C77.3043 122.714 72.7622 102.546 72.7622 73.9106C72.7622 27.8057 108.927 27.8057 120.747 27.8057C145.578 27.8057 165.158 44.4886 162.823 66.4763Z" fill="#141F25"/>
<path d="M131.073 116.26C131.073 107.218 123.431 99.8877 114.003 99.8877C104.576 99.8877 96.9333 107.218 96.9333 116.26C96.9333 125.302 96.1531 132.632 114.003 132.632C132.747 132.632 131.073 125.302 131.073 116.26Z" fill="#FFBE72"/>
<path d="M156.348 69.0272C156.348 87.3622 154.402 130.15 128.894 130.15C101.473 130.15 87.9937 110.914 87.9937 82.2786C87.9937 36.1737 120.063 47.8849 136.795 56.2512C151.203 47.8849 156.348 50.6921 156.348 69.0272Z" fill="#FFD66C"/>
<circle cx="111.071" cy="88.4009" r="6.21779" fill="black"/>
<circle cx="146.148" cy="88.4018" r="6.14446" fill="black"/>
<path d="M134.171 96.5742C135.384 96.5742 136.406 97.5942 135.942 98.7152C135.661 99.394 135.249 100.011 134.729 100.53C134.21 101.05 133.593 101.462 132.914 101.743C132.235 102.024 131.508 102.169 130.773 102.169C130.038 102.169 129.311 102.024 128.632 101.743C127.953 101.462 127.336 101.05 126.817 100.53C126.297 100.011 125.885 99.394 125.604 98.7152C125.14 97.5942 126.162 96.5742 127.375 96.5742L130.773 96.5742H134.171Z" fill="#FF9191"/>
<path d="M101.429 82.1823C103.962 78.5229 107.774 76.2933 113.517 76.2935" stroke="black" stroke-width="3" stroke-linecap="round"/>
<path d="M153.868 82.1823C151.335 78.5229 147.523 76.2933 141.78 76.2935" stroke="black" stroke-width="3" stroke-linecap="round"/>
<path d="M123.151 110.564C125.829 112.195 133.485 113.399 138.487 110.444" stroke="black" stroke-width="2" stroke-linecap="round"/>
<circle cx="114.665" cy="88.4009" r="1.83892" fill="white"/>
<circle cx="149.35" cy="88.4009" r="1.83892" fill="white"/>
<path d="M92.5055 94.024C91.4033 100.363 90.5097 105.502 81.7005 103.97C75.3615 102.868 72.2645 97.0351 73.3668 90.696C74.4691 84.357 70.5393 69.3984 76.8783 70.5006C83.2174 71.6029 93.6078 87.685 92.5055 94.024Z" fill="#FFD66C"/>
<path d="M77.6611 77.8442C80.5921 80.631 86.6674 87.3347 87.5209 91.8551C84.4426 90.7884 78.8721 90.26 81.2171 96.6793" stroke="#FFBE72" stroke-width="2" stroke-linecap="round"/>
<path d="M84.795 103.935C87.6138 103.439 93.1072 100.917 92.5306 94.8058" stroke="#FFBE72" stroke-width="2" stroke-linecap="round"/>
<path d="M83.7646 96.3301C82.9485 96.1881 82.1718 96.7347 82.0298 97.5509C81.8879 98.3671 82.4345 99.1438 83.2507 99.2857L83.7646 96.3301ZM85.306 105.451C85.0055 107.179 84.2983 108.596 83.4767 109.5C82.6405 110.421 81.8537 110.658 81.2902 110.56L80.7762 113.516C82.7054 113.851 84.4522 112.888 85.6973 111.518C86.957 110.131 87.8788 108.166 88.2616 105.965L85.306 105.451ZM81.2902 110.56C80.0417 110.343 77.4879 107.736 79.5504 103.256L76.8253 102.002C74.1881 107.73 77.0394 112.866 80.7762 113.516L81.2902 110.56ZM83.2507 99.2857C83.8142 99.3837 84.4747 99.8726 84.9511 101.021C85.4192 102.15 85.6064 103.723 85.306 105.451L88.2616 105.965C88.6444 103.763 88.4399 101.603 87.7223 99.8722C87.013 98.1618 85.6937 96.6655 83.7646 96.3301L83.2507 99.2857Z" fill="#2BBD1E"/>
<path d="M117.103 39.0415C117.527 32.2673 120.286 17.5334 127.926 12.7915" stroke="black" stroke-width="2" stroke-linecap="round"/>
<path d="M136.368 41.623C136.792 35.3408 139.551 21.6769 147.191 17.2793" stroke="black" stroke-width="2" stroke-linecap="round"/>
<path d="M101.9 87.8114C103.672 89.3404 104.677 88.1012 104.959 87.2905C105.521 87.638 106.372 88.611 105.275 89.7231C104.179 90.8352 102.568 88.912 101.9 87.8114Z" fill="black"/>
<path d="M155.246 87.8114C153.475 89.3404 152.469 88.1012 152.188 87.2905C151.625 87.638 150.774 88.611 151.871 89.7231C152.968 90.8352 154.578 88.912 155.246 87.8114Z" fill="black"/>
<path d="M102.072 89.9397C104.007 90.7742 104.818 89.1946 104.981 88.3005C105.577 88.4309 106.539 89.0642 105.621 90.5538C104.704 92.0433 102.873 90.765 102.072 89.9397Z" fill="black"/>
<path d="M155.075 89.9397C153.14 90.7742 152.329 89.1946 152.165 88.3005C151.57 88.4309 150.608 89.0642 151.525 90.5538C152.442 92.0433 154.274 90.765 155.075 89.9397Z" fill="black"/>
<ellipse cx="109.45" cy="101.688" rx="6.79395" ry="4.08716" fill="#FFBE72"/>
<ellipse cx="147.432" cy="102.018" rx="5.75977" ry="3.6215" fill="#FFBE72"/>
<path d="M125.881 14.1343C123.894 16.3141 122.992 17.519 121.958 19.6266" stroke="#2BBD1E" stroke-width="3"/>
<path d="M144.408 19.8618C142.421 22.0417 141.519 23.2465 140.485 25.3542" stroke="#2BBD1E" stroke-width="3"/>
</svg>
