<svg width="229" height="232" viewBox="0 0 229 232" fill="none" xmlns="http://www.w3.org/2000/svg">
<path d="M143.779 17.6603C148.994 33.6219 136.855 35.0288 130.104 35.0288C111.763 35.0288 140.999 -0.980614 108.967 12.3329C108.627 12.1278 108.339 11.9541 108.128 11.7995C105.94 10.1944 114.182 0.531818 126.497 0.531818C138.812 0.531818 140.899 8.84418 143.779 17.6603Z" fill="#141F25"/>
<path d="M147.729 30.688C147.729 35.239 147.729 38.9283 134.656 38.9283C121.582 38.9283 121.582 35.239 121.582 30.688C121.582 26.137 120.102 22.4478 134.656 22.4478C149.209 22.4478 147.729 26.137 147.729 30.688Z" fill="#FF8A00"/>
<path d="M154.871 36.7067C154.871 39.2152 154.871 39.2152 134.656 39.2152C114.44 39.2152 114.44 39.2152 114.44 36.7067C114.44 30.9195 123.482 26.228 134.656 26.228C145.829 26.228 154.871 30.9195 154.871 36.7067Z" fill="#141F25"/>
<path d="M93.8167 99.1814C104.764 110.114 111.672 121.423 114.011 130.854C116.356 140.308 114.093 147.757 106.95 151.173C99.8074 154.589 88.9221 153.427 76.9473 148.579C64.9996 143.742 52.1214 135.289 41.1744 124.356C30.2274 113.423 23.3193 102.115 20.98 92.6828C18.6355 83.2297 20.8984 75.7801 28.0411 72.3643C35.1837 68.9486 46.069 70.1105 58.0438 74.9583C69.9915 79.7953 82.8697 88.2483 93.8167 99.1814Z" fill="#0075FF" fill-opacity="0.3" stroke="#00C2FF"/>
<path d="M100.58 141.271C96.2456 136.877 88.7308 129.435 80.9118 122.047M38.7031 84.0691C41.0795 86.6072 47.2543 92.7096 55.6254 99.8706M80.9118 122.047C74.2354 115.739 67.3372 109.47 62.0074 105.173C59.7684 103.367 57.6337 101.589 55.6254 99.8706M80.9118 122.047C71.128 118.551 50.2747 111.559 45.1318 111.559M55.6254 99.8706L57.9893 79.9038" stroke="#00C2FF" stroke-linecap="round"/>
<path d="M135.723 99.1814C124.776 110.114 117.868 121.423 115.529 130.854C113.184 140.308 115.447 147.757 122.59 151.173C129.733 154.589 140.618 153.427 152.593 148.579C164.54 143.742 177.419 135.289 188.366 124.356C199.313 113.423 206.221 102.115 208.56 92.6828C210.905 83.2297 208.642 75.7801 201.499 72.3643C194.356 68.9486 183.471 70.1105 171.496 74.9583C159.549 79.7953 146.67 88.2483 135.723 99.1814Z" fill="#0075FF" fill-opacity="0.3" stroke="#00C2FF"/>
<path d="M128.96 141.271C133.294 136.877 140.809 129.435 148.628 122.047M190.837 84.0691C188.461 86.6072 182.286 92.7096 173.915 99.8706M148.628 122.047C155.305 115.739 162.203 109.47 167.533 105.173C169.772 103.367 171.906 101.589 173.915 99.8706M148.628 122.047C158.412 118.551 179.265 111.559 184.408 111.559M173.915 99.8706L171.551 79.9038" stroke="#00C2FF" stroke-linecap="round"/>
<path d="M72.4964 134.319C83.1284 130.445 92.7534 129.367 99.7172 130.731C106.703 132.1 110.895 135.893 110.949 141.618C111.003 147.343 106.911 154.155 99.9992 160.587C93.1088 167 83.5296 172.919 72.8976 176.793C62.2656 180.667 52.6406 181.745 45.6768 180.38C38.6915 179.011 34.4992 175.218 34.4451 169.493C34.3911 163.768 38.4832 156.957 45.3949 150.524C52.2852 144.112 61.8645 138.193 72.4964 134.319Z" fill="#0075FF" fill-opacity="0.3" stroke="#00C2FF"/>
<path d="M102.53 142.734C98.2708 144.251 91.0028 146.933 83.6768 149.835M45.3928 166.088C47.8137 165.297 53.777 163.088 61.1235 159.75M83.6768 149.835C77.4213 152.312 71.1233 154.95 66.6199 157.156C64.728 158.083 62.886 158.949 61.1235 159.75M83.6768 149.835C78.3255 155.246 67.2248 166.923 65.6317 170.336M61.1235 159.75L48.6021 151.996" stroke="#00C2FF" stroke-linecap="round"/>
<path d="M157.044 134.319C146.412 130.445 136.787 129.367 129.823 130.731C122.838 132.1 118.646 135.893 118.592 141.618C118.538 147.343 122.63 154.155 129.541 160.587C136.432 167 146.011 172.919 156.643 176.793C167.275 180.667 176.9 181.745 183.864 180.38C190.849 179.011 195.041 175.218 195.095 169.493C195.149 163.768 191.057 156.957 184.146 150.524C177.255 144.112 167.676 138.193 157.044 134.319Z" fill="#0075FF" fill-opacity="0.3" stroke="#00C2FF"/>
<path d="M127.011 142.734C131.27 144.251 138.538 146.933 145.864 149.835M184.148 166.088C181.727 165.297 175.763 163.088 168.417 159.75M145.864 149.835C152.119 152.312 158.417 154.95 162.921 157.156C164.813 158.083 166.655 158.949 168.417 159.75M145.864 149.835C151.215 155.246 162.316 166.923 163.909 170.336M168.417 159.75L180.938 151.996" stroke="#00C2FF" stroke-linecap="round"/>
<path d="M154.69 181.692C137.414 173.231 103.42 180.811 88.5825 185.659C79.7681 164.152 97.5437 144.672 107.533 137.621H144.553L154.69 181.692Z" fill="#25008D"/>
<path fill-rule="evenodd" clip-rule="evenodd" d="M168.221 176.419C172.969 175.27 175.886 170.49 174.737 165.742C172.066 154.704 164.881 146.686 157.452 141.626C150.276 136.739 141.621 133.776 134.638 134.256C129.765 134.59 126.086 138.812 126.42 143.685C126.755 148.559 130.977 152.238 135.85 151.904C137.673 151.779 142.438 152.804 147.494 156.248C152.298 159.519 156.158 164.174 157.544 169.903C158.693 174.651 163.473 177.568 168.221 176.419Z" fill="#F5C002"/>
<path d="M48.4463 231.442L91.4054 205.189L96.1786 217.123L48.4463 231.442Z" fill="black"/>
<path fill-rule="evenodd" clip-rule="evenodd" d="M145.522 184.589C144.233 175.373 147.298 164.124 150.596 155.422C151.549 152.907 152.069 150.192 152.069 147.359C152.069 134.366 141.126 123.833 127.627 123.833C114.127 123.833 103.184 134.366 103.184 147.359C103.184 150.159 101.275 152.823 98.539 153.418C81.3068 157.167 68.4443 171.922 68.4443 189.552C68.4443 210.017 85.7758 226.607 107.155 226.607C128.535 226.607 145.866 210.017 145.866 189.552C145.866 187.869 145.749 186.212 145.522 184.589Z" fill="#FFD600"/>
<path fill-rule="evenodd" clip-rule="evenodd" d="M145.858 190.418C114.486 200.4 88.929 186.817 73.1275 171.872C70.9866 175.641 69.509 179.804 68.8445 184.219C85.8835 199.494 111.345 212.449 141.915 205.883C144.321 201.199 145.725 195.959 145.858 190.418ZM135.609 214.677C106.526 221.594 82.1248 206.813 68.6533 193.399C70.6648 212.055 87.1363 226.604 107.158 226.604C118.408 226.604 128.536 222.011 135.609 214.677ZM80.2454 162.914C95.4166 175.858 118.367 186.662 145.241 178.849C145.391 173.7 146.507 168.246 147.999 163.141C124.823 172.661 104.867 165.797 91.0051 155.865C87.0042 157.626 83.3709 160.02 80.2454 162.914Z" fill="#141F25"/>
<path d="M84.669 142.54C91.1597 129.868 106.096 127.87 114.293 129.203C107.523 135.432 115.25 152.251 114.728 167.357C114.13 184.635 111.679 191.537 110.235 194.967C108.792 198.397 97.0609 194.29 88.2235 188.729C79.386 183.168 75.805 159.845 84.669 142.54Z" fill="#4E17EA"/>
<path d="M152.588 143.104C147.813 128.395 141.32 127.738 136.683 127.893C144.883 135.053 149.16 145.974 147.028 159.909C144.875 173.975 141.74 186.341 142.344 189.804C142.949 193.267 150.066 191.883 155.305 187.789C160.543 183.695 158.364 160.902 152.588 143.104Z" fill="#4E17EA"/>
<path d="M92.8003 182.529C90.3751 183.727 87.0617 180.268 85.7082 178.388C86.4029 176.974 88.3372 174.713 90.5173 176.98C93.2423 179.812 95.8319 181.031 92.8003 182.529Z" fill="#F5C002"/>
<path fill-rule="evenodd" clip-rule="evenodd" d="M83.9391 187.327C79.3114 188.891 74.292 186.408 72.7279 181.78C69.092 171.022 70.8855 160.405 74.4647 152.16C77.922 144.196 83.6572 137.069 89.8167 133.746C94.1157 131.426 99.4812 133.031 101.801 137.33C104.12 141.629 102.516 146.994 98.2166 149.314C96.6086 150.181 93.1276 153.593 90.6914 159.204C88.3769 164.536 87.5995 170.533 89.4865 176.116C91.0506 180.744 88.5669 185.763 83.9391 187.327Z" fill="#FFDE31"/>
<path d="M173.249 91.3938C173.249 98.396 173.249 104.072 182.98 104.072C189.982 104.072 194.39 98.396 194.39 91.3938C194.39 84.3915 201.393 69.0854 194.39 69.0854C187.388 69.0854 173.249 84.3915 173.249 91.3938Z" fill="#F5C002"/>
<path d="M195.405 75.4985C191.743 77.9401 183.979 83.9951 182.221 88.6827C185.72 88.113 191.792 88.585 188.08 95.0306" stroke="#A68D0B" stroke-width="2" stroke-linecap="round"/>
<path d="M188.913 95.6284C188.084 95.6284 187.413 96.3 187.413 97.1284C187.413 97.9568 188.084 98.6284 188.913 98.6284V95.6284ZM192.398 104.988C192.398 106.918 191.899 108.595 191.171 109.742C190.432 110.907 189.596 111.347 188.913 111.347V114.347C190.983 114.347 192.64 113.028 193.705 111.349C194.781 109.651 195.398 107.399 195.398 104.988H192.398ZM188.913 111.347C187.422 111.347 184.166 108.921 185.558 103.674L182.658 102.905C180.914 109.48 184.897 114.347 188.913 114.347V111.347ZM188.913 98.6284C189.596 98.6284 190.432 99.0683 191.171 100.234C191.899 101.381 192.398 103.058 192.398 104.988H195.398C195.398 102.577 194.781 100.324 193.705 98.6269C192.64 96.9479 190.983 95.6284 188.913 95.6284V98.6284Z" fill="#FF8A00"/>
<path d="M152.023 119.491C152.023 109.479 143.057 101.362 131.996 101.362C120.936 101.362 111.97 109.479 111.97 119.491C111.97 129.504 111.054 137.621 131.996 137.621C153.987 137.62 152.023 129.504 152.023 119.491Z" fill="#CFB00C"/>
<path d="M185.247 74.0161C185.247 110.013 192.336 138.555 132.69 135.72C89.3969 133.662 79.5576 110.013 79.5576 74.0161C79.5576 38.0188 117.122 32.7944 134.948 32.7944C159.779 32.7944 185.247 38.0188 185.247 74.0161Z" fill="#FFD600"/>
<circle cx="125.105" cy="93.3902" r="6.21779" fill="black"/>
<circle cx="171.558" cy="93.3906" r="6.14446" fill="black"/>
<path d="M156.693 101.563C158.466 101.563 159.959 103.053 159.281 104.691C158.87 105.683 158.268 106.584 157.509 107.343C156.75 108.102 155.849 108.704 154.857 109.115C153.866 109.525 152.803 109.737 151.729 109.737C150.656 109.737 149.593 109.525 148.601 109.115C147.61 108.704 146.709 108.102 145.95 107.343C145.191 106.584 144.589 105.683 144.178 104.691C143.499 103.053 144.993 101.563 146.765 101.563H151.729H156.693Z" fill="#FF9900"/>
<path d="M114.771 87.1716C117.303 83.5122 121.115 81.2826 126.859 81.2827" stroke="black" stroke-width="5" stroke-linecap="round"/>
<path d="M180.235 87.1716C177.702 83.5122 173.891 81.2826 168.147 81.2827" stroke="black" stroke-width="5" stroke-linecap="round"/>
<path d="M138.245 116.192C142.448 117.593 154.031 118.154 161.131 114.791" stroke="black" stroke-width="4" stroke-linecap="round"/>
<circle cx="128.699" cy="93.3897" r="1.83892" fill="white"/>
<circle cx="174.76" cy="93.3897" r="1.83892" fill="white"/>
<path d="M90.5649 94.0077C89.0784 102.557 87.8733 109.487 75.9932 107.421C67.4443 105.934 63.2676 98.0684 64.7542 89.5195C66.2407 80.9706 60.941 60.7972 69.4899 62.2837C78.0388 63.7703 92.0515 85.4588 90.5649 94.0077Z" fill="#FFD600"/>
<path d="M70.5459 72.1875C74.4986 75.9458 82.6919 84.9865 83.8429 91.0827C79.6914 89.6442 72.1791 88.9315 75.3415 97.5887" stroke="#CFB00C" stroke-width="2" stroke-linecap="round"/>
<path d="M80.1665 107.374C83.9679 106.705 91.3764 103.304 90.5988 95.062" stroke="#CFB00C" stroke-width="2" stroke-linecap="round"/>
<path d="M78.6875 97.6327C77.8714 97.4907 77.0947 98.0373 76.9527 98.8535C76.8108 99.6697 77.3574 100.446 78.1736 100.588L78.6875 97.6327ZM81.371 109.507C80.9514 111.92 79.9603 113.927 78.7759 115.231C77.5769 116.551 76.3485 116.997 75.3505 116.824L74.8365 119.779C77.2001 120.19 79.3886 119.018 80.9965 117.248C82.6189 115.462 83.8247 112.908 84.3266 110.021L81.371 109.507ZM75.3505 116.824C73.233 116.455 69.7371 112.499 72.6187 106.239L69.8936 104.985C66.4373 112.493 70.2307 118.978 74.8365 119.779L75.3505 116.824ZM78.1736 100.588C79.1716 100.762 80.1772 101.597 80.8603 103.244C81.535 104.871 81.7905 107.094 81.371 109.507L84.3266 110.021C84.8285 107.135 84.5558 104.324 83.6314 102.095C82.7154 99.8859 81.0511 98.0437 78.6875 97.6327L78.1736 100.588Z" fill="#FF8A00"/>
<path d="M130.538 54.5566C130.962 47.7824 133.721 33.0486 141.361 28.3066" stroke="black" stroke-width="4" stroke-linecap="round"/>
<path d="M164.669 57.1382C165.093 50.8559 167.852 37.192 175.492 32.7944" stroke="black" stroke-width="4" stroke-linecap="round"/>
<circle cx="179.156" cy="30.9644" r="3" fill="#FFD600"/>
<circle cx="142.829" cy="26.4321" r="3" fill="#FFD600"/>
</svg>
