<svg width="23" height="23" viewBox="0 0 23 23" fill="none" xmlns="http://www.w3.org/2000/svg">
<path d="M22.0225 11.4775C22.0225 10.7533 21.9577 10.0658 21.8467 9.39665H11.3936V13.5308H17.3787C17.1104 14.8875 16.3241 16.0333 15.1585 16.8125V19.5625H18.7293C20.8199 17.6467 22.0225 14.8233 22.0225 11.4775Z" fill="#4285F4"/>
<path d="M11.3937 22.23C14.3909 22.23 16.8978 21.24 18.7294 19.5625L15.1587 16.8125C14.1596 17.4725 12.8923 17.8758 11.3937 17.8758C8.49826 17.8758 6.04686 15.9417 5.16806 13.3292H1.48633V16.1617C3.30869 19.755 7.05517 22.23 11.3937 22.23Z" fill="#34A853"/>
<path d="M5.1679 13.3291C4.93663 12.6691 4.81638 11.9633 4.81638 11.23C4.81638 10.4966 4.94589 9.79081 5.1679 9.13081V6.29831H1.48617C0.727623 7.78331 0.292847 9.45164 0.292847 11.23C0.292847 13.0083 0.727623 14.6766 1.48617 16.1616L5.1679 13.3291Z" fill="#FBBC05"/>
<path d="M11.3937 4.58415C13.031 4.58415 14.4926 5.14332 15.649 6.23415L18.8126 3.09915C16.8978 1.32081 14.3909 0.22998 11.3937 0.22998C7.05517 0.22998 3.30869 2.70498 1.48633 6.29832L5.16806 9.13082C6.04686 6.51832 8.49826 4.58415 11.3937 4.58415Z" fill="#EA4335"/>
</svg>
