<svg width="42" height="41" viewBox="0 0 42 41" fill="none" xmlns="http://www.w3.org/2000/svg">
<g id="Group 543">
<g id="Ellipse 24" filter="url(#filter0_dd_582_6967)">
<circle cx="17.7229" cy="17.7824" r="17.1935" fill="#FFC19D"/>
<circle cx="17.7229" cy="17.7824" r="16.871" stroke="#F68078" stroke-width="0.645109"/>
</g>
<circle id="Ellipse 25" cx="17.7232" cy="17.7825" r="4.29837" fill="#FF5B51"/>
<path id="Ellipse 26 (Stroke)" fill-rule="evenodd" clip-rule="evenodd" d="M17.7229 26.5829C22.5832 26.5829 26.5233 22.6428 26.5233 17.7824C26.5233 12.9221 22.5832 8.98203 17.7229 8.98203C12.8625 8.98203 8.92246 12.9221 8.92246 17.7824C8.92246 22.6428 12.8625 26.5829 17.7229 26.5829ZM17.7229 29.7224C24.3171 29.7224 29.6628 24.3767 29.6628 17.7824C29.6628 11.1882 24.3171 5.84253 17.7229 5.84253C11.1286 5.84253 5.78296 11.1882 5.78296 17.7824C5.78296 24.3767 11.1286 29.7224 17.7229 29.7224Z" fill="#141F25"/>
<path id="Line 12 (Stroke)" fill-rule="evenodd" clip-rule="evenodd" d="M17.8 17.4406C17.5767 17.8121 17.6968 18.2943 18.0684 18.5176L39.0693 31.1396L39.878 29.7942L18.877 17.1722C18.5055 16.9489 18.0233 17.069 17.8 17.4406Z" fill="black"/>
<path id="Line 13 (Stroke)" fill-rule="evenodd" clip-rule="evenodd" d="M34.7989 27.8512C34.1838 28.997 34.614 30.4244 35.7598 31.0395L39.5084 33.0519L41.7358 28.9027L37.9872 26.8903C36.8414 26.2752 35.414 26.7054 34.7989 27.8512Z" fill="#FF5B51"/>
</g>
<defs>
<filter id="filter0_dd_582_6967" x="0.529419" y="0.588867" width="34.387" height="39.5478" filterUnits="userSpaceOnUse" color-interpolation-filters="sRGB">
<feFlood flood-opacity="0" result="BackgroundImageFix"/>
<feColorMatrix in="SourceAlpha" type="matrix" values="0 0 0 0 0 0 0 0 0 0 0 0 0 0 0 0 0 0 127 0" result="hardAlpha"/>
<feOffset dy="5.16087"/>
<feComposite in2="hardAlpha" operator="out"/>
<feColorMatrix type="matrix" values="0 0 0 0 0 0 0 0 0 0 0 0 0 0 0 0 0 0 0.8 0"/>
<feBlend mode="normal" in2="BackgroundImageFix" result="effect1_dropShadow_582_6967"/>
<feColorMatrix in="SourceAlpha" type="matrix" values="0 0 0 0 0 0 0 0 0 0 0 0 0 0 0 0 0 0 127 0" result="hardAlpha"/>
<feOffset dy="2.58044"/>
<feComposite in2="hardAlpha" operator="out"/>
<feColorMatrix type="matrix" values="0 0 0 0 0.966667 0 0 0 0 0.500975 0 0 0 0 0.47125 0 0 0 1 0"/>
<feBlend mode="normal" in2="effect1_dropShadow_582_6967" result="effect2_dropShadow_582_6967"/>
<feBlend mode="normal" in="SourceGraphic" in2="effect2_dropShadow_582_6967" result="shape"/>
</filter>
</defs>
</svg>
