<svg width="31" height="42" viewBox="0 0 31 42" fill="none" xmlns="http://www.w3.org/2000/svg">
<g id="Group 541">
<g id="Group 26" filter="url(#filter0_d_604_1039)">
<g id="Ellipse 17" filter="url(#filter1_d_604_1039)">
<path d="M21.9425 36.1182C28.2119 36.1182 33.5267 30.534 29.7123 25.5586C29.2523 24.9586 28.7512 24.3862 28.2107 23.8457C24.9558 20.5908 20.5412 18.7622 15.9381 18.7622C11.335 18.7622 6.92044 20.5908 3.66555 23.8457C3.12507 24.3862 2.62391 24.9586 2.16393 25.5586C-1.65049 30.534 3.66439 36.1182 9.93372 36.1182L21.9425 36.1182Z" fill="#93F8FF"/>
<path d="M29.4563 25.7549C30.3681 26.9441 30.7227 28.1521 30.667 29.2918C30.611 30.435 30.1407 31.5357 29.3582 32.5011C27.7891 34.4372 24.9884 35.7957 21.9425 35.7957L9.93372 35.7957C6.88783 35.7957 4.08719 34.4372 2.518 32.5011C1.73551 31.5357 1.26521 30.435 1.2093 29.2918C1.15355 28.1521 1.50819 26.9441 2.41991 25.7549C2.87134 25.166 3.36318 24.6042 3.89364 24.0738C7.08803 20.8794 11.4206 19.0848 15.9381 19.0848C20.4557 19.0848 24.7882 20.8794 27.9826 24.0738C28.5131 24.6042 29.0049 25.166 29.4563 25.7549Z" stroke="#4FCED7" stroke-width="0.645109"/>
</g>
<path id="Ellipse 20" d="M19.2716 15.4331C21.0284 17.6057 24.3761 17.94 25.4707 15.3693C25.6146 15.0315 25.7408 14.6852 25.8486 14.3317C26.4522 12.3518 26.4489 10.2364 25.8392 8.25831C25.2295 6.28023 24.0413 4.53012 22.4277 3.23358C20.8142 1.93704 18.8493 1.15352 16.7863 0.984017C14.7233 0.814514 12.6569 1.2668 10.8533 2.28258C9.0498 3.29835 7.59185 4.83104 6.66743 6.68307C5.74302 8.5351 5.39451 10.6216 5.66685 12.6735C5.71548 13.0398 5.78349 13.4021 5.87026 13.7589C6.53055 16.4737 9.88796 16.6903 11.9758 14.8336C14.1333 12.915 17.4562 13.1881 19.2716 15.4331Z" fill="black"/>
<path id="Ellipse 21" d="M22.99 20.151C17.6908 25.694 19.8328 19.6867 15.9382 19.6867C12.0436 19.6867 15.1787 25.5848 8.88635 20.151C8.88635 17.9199 12.0436 16.1113 15.9382 16.1113C19.8328 16.1113 22.99 17.9199 22.99 20.151Z" fill="#F4441C"/>
<g id="Union" filter="url(#filter2_d_604_1039)">
<path fill-rule="evenodd" clip-rule="evenodd" d="M22.6448 15.2842C21.7251 18.1092 19.07 20.151 15.938 20.151C12.809 20.151 10.156 18.1131 9.23387 15.2921C9.20389 15.2951 9.17365 15.2967 9.14316 15.2967C8.40482 15.2967 7.80627 14.4005 7.80627 13.295C7.80627 12.2013 8.39207 11.3125 9.1195 11.2936C9.91704 8.27377 12.6675 6.04736 15.938 6.04736C19.2087 6.04736 21.9594 8.27402 22.7567 11.2941C22.7695 11.2936 22.7822 11.2933 22.795 11.2933C23.5334 11.2933 24.1319 12.1895 24.1319 13.295C24.1319 14.4005 23.5334 15.2967 22.795 15.2967C22.7443 15.2967 22.6941 15.2924 22.6448 15.2842Z" fill="#FFCEB3"/>
</g>
<path id="Ellipse 19" d="M17.8357 11.3105C21.6705 11.3105 24.9013 7.7707 22.1897 5.05914C20.5317 3.40117 18.2831 2.46973 15.9383 2.46973C13.5936 2.46973 11.3449 3.40116 9.68694 5.05914C6.97538 7.7707 10.2062 11.3105 14.0409 11.3105H15.9383H17.8357Z" fill="black"/>
</g>
</g>
<defs>
<filter id="filter0_d_604_1039" x="0.881104" y="0.949219" width="30.114" height="40.3298" filterUnits="userSpaceOnUse" color-interpolation-filters="sRGB">
<feFlood flood-opacity="0" result="BackgroundImageFix"/>
<feColorMatrix in="SourceAlpha" type="matrix" values="0 0 0 0 0 0 0 0 0 0 0 0 0 0 0 0 0 0 127 0" result="hardAlpha"/>
<feOffset dy="5.16087"/>
<feComposite in2="hardAlpha" operator="out"/>
<feColorMatrix type="matrix" values="0 0 0 0 0 0 0 0 0 0 0 0 0 0 0 0 0 0 0.8 0"/>
<feBlend mode="normal" in2="BackgroundImageFix" result="effect1_dropShadow_604_1039"/>
<feBlend mode="normal" in="SourceGraphic" in2="effect1_dropShadow_604_1039" result="shape"/>
</filter>
<filter id="filter1_d_604_1039" x="0.881104" y="18.7622" width="30.114" height="19.9364" filterUnits="userSpaceOnUse" color-interpolation-filters="sRGB">
<feFlood flood-opacity="0" result="BackgroundImageFix"/>
<feColorMatrix in="SourceAlpha" type="matrix" values="0 0 0 0 0 0 0 0 0 0 0 0 0 0 0 0 0 0 127 0" result="hardAlpha"/>
<feOffset dy="2.58044"/>
<feComposite in2="hardAlpha" operator="out"/>
<feColorMatrix type="matrix" values="0 0 0 0 0.309804 0 0 0 0 0.807843 0 0 0 0 0.843137 0 0 0 1 0"/>
<feBlend mode="normal" in2="BackgroundImageFix" result="effect1_dropShadow_604_1039"/>
<feBlend mode="normal" in="SourceGraphic" in2="effect1_dropShadow_604_1039" result="shape"/>
</filter>
<filter id="filter2_d_604_1039" x="7.80627" y="6.04736" width="16.3257" height="15.3937" filterUnits="userSpaceOnUse" color-interpolation-filters="sRGB">
<feFlood flood-opacity="0" result="BackgroundImageFix"/>
<feColorMatrix in="SourceAlpha" type="matrix" values="0 0 0 0 0 0 0 0 0 0 0 0 0 0 0 0 0 0 127 0" result="hardAlpha"/>
<feOffset dy="1.29022"/>
<feComposite in2="hardAlpha" operator="out"/>
<feColorMatrix type="matrix" values="0 0 0 0 0.908333 0 0 0 0 0.701206 0 0 0 0 0.582847 0 0 0 1 0"/>
<feBlend mode="normal" in2="BackgroundImageFix" result="effect1_dropShadow_604_1039"/>
<feBlend mode="normal" in="SourceGraphic" in2="effect1_dropShadow_604_1039" result="shape"/>
</filter>
</defs>
</svg>
