<svg width="47" height="42" viewBox="0 0 47 42" fill="none" xmlns="http://www.w3.org/2000/svg">
<g filter="url(#filter0_dd_378_3167)">
<path d="M18.8001 37.3234L4.76609 22.976C3.02377 21.1947 3.02377 18.3358 4.76609 16.5546L18.8001 2.20707C21.6541 -0.710694 26.5872 1.32335 26.5872 5.41776V34.1127C26.5873 38.2071 21.6542 40.2412 18.8001 37.3234Z" fill="#ADB8BC"/>
<path d="M11.4675 29.8846H3.13267C1.66359 29.8846 0.461609 28.6748 0.461609 27.1961V12.3346C0.461609 10.856 1.66359 9.64624 3.13267 9.64624H11.4676L11.4675 29.8846Z" fill="#597B91"/>
<path d="M33.5757 30.8476C33.1736 30.8476 32.7801 30.6469 32.5486 30.2798C32.1889 29.7095 32.3566 28.9537 32.9233 28.5915C35.3238 27.0578 37.0373 24.4387 37.507 21.5857C38.1553 17.6474 36.3293 13.5333 32.9632 11.3482C32.3991 10.982 32.2368 10.2251 32.6007 9.65731C32.9643 9.08948 33.7164 8.92593 34.2808 9.29232C38.4491 11.9982 40.7093 17.0993 39.9049 21.9855C39.324 25.5144 37.201 28.756 34.226 30.6569C34.0317 30.7815 33.8061 30.8476 33.5757 30.8476ZM38.2385 34.2201C42.2057 31.6855 45.0367 27.3622 45.8115 22.6553C46.884 16.14 43.8696 9.33788 38.3106 5.72934C37.7463 5.36295 36.9942 5.5265 36.6306 6.09433C36.2667 6.66207 36.429 7.41912 36.9931 7.78523C41.7498 10.873 44.3299 16.6882 43.4136 22.2555C42.75 26.2865 40.3283 29.9873 36.9357 32.1548C36.3691 32.5168 36.2013 33.2727 36.561 33.8432C36.6465 33.9789 36.7577 34.0963 36.8883 34.1888C37.0189 34.2812 37.1663 34.3468 37.3221 34.3818C37.4779 34.4168 37.639 34.4205 37.7963 34.3928C37.9535 34.3651 38.1038 34.3064 38.2385 34.2201ZM30.8428 25.8327C32.4988 24.7744 33.6338 23.042 33.9568 21.0794C34.3981 18.3984 33.1591 15.6003 30.8737 14.1168C30.3097 13.7507 29.5574 13.9141 29.1937 14.4818C28.8298 15.0495 28.9921 15.8066 29.5563 16.1728C31.0392 17.1354 31.8441 18.9465 31.5589 20.6795C31.3518 21.9375 30.597 23.0917 29.54 23.7673C28.9733 24.1294 28.8056 24.8854 29.1653 25.4556C29.275 25.6298 29.4267 25.7732 29.6063 25.8725C29.7859 25.9717 29.9876 26.0236 30.1925 26.0234C30.4228 26.0234 30.6484 25.9572 30.8428 25.8327Z" fill="#7D9DAF"/>
</g>
<defs>
<filter id="filter0_dd_378_3167" x="0.461609" y="0.832092" width="45.5646" height="40.8663" filterUnits="userSpaceOnUse" color-interpolation-filters="sRGB">
<feFlood flood-opacity="0" result="BackgroundImageFix"/>
<feColorMatrix in="SourceAlpha" type="matrix" values="0 0 0 0 0 0 0 0 0 0 0 0 0 0 0 0 0 0 127 0" result="hardAlpha"/>
<feOffset dy="3"/>
<feComposite in2="hardAlpha" operator="out"/>
<feColorMatrix type="matrix" values="0 0 0 0 0 0 0 0 0 0 0 0 0 0 0 0 0 0 0.5 0"/>
<feBlend mode="normal" in2="BackgroundImageFix" result="effect1_dropShadow_378_3167"/>
<feColorMatrix in="SourceAlpha" type="matrix" values="0 0 0 0 0 0 0 0 0 0 0 0 0 0 0 0 0 0 127 0" result="hardAlpha"/>
<feOffset dy="1.75"/>
<feComposite in2="hardAlpha" operator="out"/>
<feColorMatrix type="matrix" values="0 0 0 0 0.191667 0 0 0 0 0.308036 0 0 0 0 0.383333 0 0 0 1 0"/>
<feBlend mode="normal" in2="effect1_dropShadow_378_3167" result="effect2_dropShadow_378_3167"/>
<feBlend mode="normal" in="SourceGraphic" in2="effect2_dropShadow_378_3167" result="shape"/>
</filter>
</defs>
</svg>
