<svg width="178" height="41" viewBox="0 0 178 41" fill="none" xmlns="http://www.w3.org/2000/svg">
<path d="M5.13261 18.3147C5.13261 19.1547 5.33561 19.9386 5.74159 20.6666C6.16157 21.3806 6.70755 22.0105 7.37952 22.5565C8.05149 23.0885 8.82145 23.5085 9.68942 23.8165C10.5574 24.1104 11.4463 24.2574 12.3563 24.2574C12.6363 24.2574 12.9233 24.2364 13.2173 24.1944C13.5113 24.1384 13.7772 24.0474 14.0152 23.9214C14.2532 23.7955 14.4492 23.6345 14.6032 23.4385C14.7572 23.2285 14.8342 22.9695 14.8342 22.6615C14.8342 22.0735 14.6242 21.4926 14.2042 20.9186C13.7982 20.3446 13.2593 19.7776 12.5873 19.2177C11.9153 18.6437 11.1454 18.0767 10.2774 17.5167C9.40943 16.9427 8.52747 16.3758 7.63151 15.8158C6.73555 15.2558 5.85358 14.6958 4.98562 14.1359C4.11766 13.5619 3.34769 12.9949 2.67572 12.4349C2.00375 11.861 1.45777 11.287 1.03779 10.713C0.63181 10.125 0.428819 9.53707 0.428819 8.9491C0.428819 8.38912 0.568813 7.87114 0.848801 7.39516C1.14279 6.90519 1.52777 6.4642 2.00375 6.07222C2.47973 5.68024 3.03271 5.33025 3.66268 5.02227C4.29265 4.71428 4.95062 4.45529 5.63659 4.2453C6.32256 4.03531 7.00853 3.88132 7.6945 3.78332C8.39447 3.67133 9.05944 3.61533 9.68942 3.61533C10.1514 3.61533 10.6554 3.62933 11.2014 3.65733C11.7613 3.67133 12.2793 3.73432 12.7553 3.84632C13.2453 3.94431 13.6512 4.09831 13.9732 4.3083C14.2952 4.51829 14.4562 4.81928 14.4562 5.21126C14.4562 5.33725 14.4352 5.49825 14.3932 5.69424C14.3512 5.87623 14.2322 6.18422 14.0362 6.6182C13.8402 7.02418 13.6092 7.33217 13.3433 7.54216C13.0913 7.73815 12.7623 7.83614 12.3563 7.83614C11.7823 7.83614 11.1734 7.77315 10.5294 7.64715C9.89941 7.50716 9.26244 7.43716 8.61846 7.43716C8.26848 7.43716 7.91149 7.45816 7.54751 7.50016C7.19753 7.52816 6.87554 7.59116 6.58155 7.68915C6.28756 7.77315 6.04958 7.90614 5.86758 8.08813C5.68559 8.25613 5.59459 8.47312 5.59459 8.73911C5.59459 9.00509 5.78359 9.30608 6.16157 9.64207C6.55355 9.97805 7.06453 10.349 7.6945 10.755C8.33848 11.161 9.06644 11.609 9.87841 12.099C10.6904 12.5749 11.5163 13.0929 12.3563 13.6529C13.2103 14.1989 14.0432 14.7868 14.8552 15.4168C15.6672 16.0328 16.3881 16.6908 17.0181 17.3907C17.6621 18.0767 18.173 18.8047 18.551 19.5746C18.943 20.3446 19.139 21.1426 19.139 21.9685C19.139 22.9765 18.908 23.8654 18.446 24.6354C17.9841 25.4054 17.3891 26.0494 16.6611 26.5673C15.9331 27.0853 15.1282 27.4703 14.2462 27.7223C13.3643 27.9883 12.5033 28.1213 11.6633 28.1213C10.8094 28.1213 9.94141 28.0163 9.05944 27.8063C8.19148 27.6103 7.35152 27.3233 6.53955 26.9453C5.72759 26.5813 4.96462 26.1404 4.25065 25.6224C3.55068 25.0904 2.94171 24.5024 2.42373 23.8584C1.90575 23.2005 1.49277 22.4935 1.18479 21.7375C0.890799 20.9816 0.743805 20.1906 0.743805 19.3646C0.743805 19.0147 0.764804 18.6647 0.806803 18.3147C0.8628 17.9507 0.953796 17.6357 1.07979 17.3697C1.20579 17.0897 1.38078 16.8658 1.60477 16.6978C1.82876 16.5158 2.11575 16.4248 2.46573 16.4248C2.57773 16.4248 2.70372 16.4388 2.84371 16.4668C2.98371 16.4808 3.2287 16.5438 3.57868 16.6558C3.98466 16.7818 4.34165 16.9847 4.64964 17.2647C4.97162 17.5307 5.13261 17.8807 5.13261 18.3147ZM18.845 12.267C18.845 11.721 19.09 11.308 19.58 11.028C20.07 10.734 20.7699 10.587 21.6799 10.587C21.8899 10.587 22.0789 10.615 22.2469 10.671C22.4149 10.727 22.5619 10.839 22.6879 11.007C22.8278 11.161 22.9538 11.378 23.0658 11.658C23.1778 11.938 23.2898 12.295 23.4018 12.7289C23.5138 13.2189 23.6258 13.4639 23.7378 13.4639C23.8358 13.4639 23.9548 13.2609 24.0948 12.8549C24.3468 12.057 24.6758 11.364 25.0817 10.776C25.5017 10.174 25.9707 9.67706 26.4887 9.28508C27.0067 8.8791 27.5666 8.57811 28.1686 8.38212C28.7846 8.18613 29.4286 8.08813 30.1005 8.08813C31.4585 8.08813 32.7254 8.34712 33.9014 8.8651C35.0773 9.36908 36.0923 10.076 36.9462 10.986C37.8002 11.882 38.4722 12.9459 38.9621 14.1779C39.4521 15.3958 39.6971 16.7188 39.6971 18.1467C39.6971 19.6586 39.4311 21.0586 38.8992 22.3465C38.3812 23.6345 37.6532 24.7474 36.7152 25.6854C35.7773 26.6093 34.6573 27.3303 33.3554 27.8483C32.0674 28.3803 30.6535 28.6462 29.1136 28.6462L28.0426 28.6042C27.4126 28.6042 27.0977 28.9612 27.0977 29.6752L28.1686 39.3138C28.1546 39.5518 28.0706 39.7688 27.9166 39.9648C27.7766 40.1747 27.5806 40.3567 27.3287 40.5107C27.0907 40.6647 26.8037 40.7837 26.4677 40.8677C26.1457 40.9517 25.8097 40.9937 25.4597 40.9937C24.4518 40.9937 23.9058 40.6647 23.8218 40.0067C23.5278 37.4589 23.1988 35.037 22.8348 32.7411C22.4849 30.4452 22.1209 28.3103 21.7429 26.3363C21.3789 24.3484 21.0219 22.5425 20.6719 20.9186C20.322 19.2946 20.007 17.8807 19.727 16.6768C19.461 15.4728 19.251 14.4929 19.097 13.7369C18.929 12.9809 18.845 12.4909 18.845 12.267ZM25.6697 17.8107C25.6697 18.7207 25.7047 19.6236 25.7747 20.5196C25.8447 21.4016 25.9567 22.3605 26.1107 23.3965C26.1947 24.0264 26.5377 24.3834 27.1397 24.4674C27.5036 24.5514 27.9096 24.6354 28.3576 24.7194C28.8196 24.7894 29.2046 24.8244 29.5126 24.8244C30.4085 24.8244 31.2205 24.6914 31.9485 24.4254C32.6764 24.1594 33.2994 23.7815 33.8174 23.2915C34.3353 22.7875 34.7343 22.1925 35.0143 21.5066C35.2943 20.8206 35.4343 20.0576 35.4343 19.2177C35.4343 18.1957 35.2943 17.2437 35.0143 16.3618C34.7343 15.4658 34.3493 14.6888 33.8594 14.0309C33.3834 13.3729 32.8164 12.8549 32.1584 12.4769C31.5145 12.099 30.8145 11.91 30.0585 11.91C29.4006 11.91 28.7986 12.057 28.2526 12.3509C27.7206 12.6309 27.2587 13.0299 26.8667 13.5479C26.4887 14.0519 26.1947 14.6678 25.9847 15.3958C25.7747 16.1238 25.6697 16.9288 25.6697 17.8107ZM59.9192 22.3255C60.3252 21.9755 60.7242 21.8005 61.1162 21.8005C61.3402 21.8005 61.5432 21.8565 61.7252 21.9685C61.9072 22.0805 62.1101 22.2555 62.3341 22.4935C62.5441 22.8155 62.6911 23.0815 62.7751 23.2915C62.8731 23.4875 62.9221 23.6835 62.9221 23.8794C62.9221 24.2994 62.7121 24.6984 62.2921 25.0764C61.6202 25.6364 60.8922 26.1404 60.1082 26.5883C59.3243 27.0223 58.5053 27.3933 57.6513 27.7013C56.7974 28.0093 55.9154 28.2403 55.0055 28.3943C54.0955 28.5622 53.1925 28.6462 52.2966 28.6462C51.1626 28.6462 50.0987 28.4992 49.1047 28.2053C48.1108 27.9253 47.2218 27.5193 46.4378 26.9873C45.6679 26.4553 45.0169 25.8184 44.4849 25.0764C43.9529 24.3204 43.5749 23.4735 43.351 22.5355C43.225 22.1435 43.106 21.8915 42.994 21.7795C42.896 21.6535 42.728 21.5905 42.49 21.5905C41.972 21.5905 41.573 21.4646 41.293 21.2126C41.0131 20.9606 40.8731 20.5966 40.8731 20.1206C40.8731 19.9246 40.8871 19.7986 40.9151 19.7426L40.9571 19.3226C41.0271 18.8187 41.1601 18.4547 41.356 18.2307C41.566 18.0067 41.888 17.8947 42.322 17.8947H42.637C43.225 17.8947 43.6379 17.6217 43.8759 17.0757C44.3099 16.1098 44.8629 15.2278 45.5349 14.4299C46.2068 13.6319 46.9628 12.9529 47.8028 12.3929C48.6427 11.819 49.5387 11.378 50.4906 11.07C51.4566 10.748 52.4366 10.587 53.4305 10.587C54.4665 10.587 55.4324 10.741 56.3284 11.049C57.2384 11.343 58.0293 11.756 58.7013 12.288C59.3733 12.8199 59.8982 13.4429 60.2762 14.1569C60.6682 14.8708 60.8642 15.6408 60.8642 16.4668C60.8642 17.0407 60.7522 17.5657 60.5282 18.0417C60.3042 18.5177 59.9822 18.9377 59.5623 19.3016C59.1423 19.6516 58.6313 19.9386 58.0293 20.1626C57.4413 20.3866 56.7694 20.5336 56.0134 20.6036L48.7267 21.3386C48.4467 21.3386 48.2157 21.4086 48.0338 21.5485C47.8658 21.6885 47.7818 21.8775 47.7818 22.1155C47.7818 22.4795 47.9148 22.8295 48.1807 23.1655C48.4607 23.5015 48.8247 23.8025 49.2727 24.0684C49.7347 24.3204 50.2597 24.5234 50.8476 24.6774C51.4496 24.8314 52.0656 24.9084 52.6956 24.9084C53.2975 24.9084 53.9135 24.8524 54.5435 24.7404C55.1874 24.6144 55.8174 24.4394 56.4334 24.2154C57.0634 23.9914 57.6723 23.7255 58.2603 23.4175C58.8483 23.0955 59.4013 22.7315 59.9192 22.3255ZM55.2364 16.9078C55.4464 16.8658 55.6284 16.7678 55.7824 16.6138C55.9364 16.4458 56.0134 16.2428 56.0134 16.0048C56.0134 15.7948 55.9364 15.5988 55.7824 15.4168C55.6284 15.2348 55.4184 15.0738 55.1524 14.9338C54.8865 14.7798 54.5785 14.6608 54.2285 14.5769C53.8785 14.4929 53.5075 14.4509 53.1155 14.4509C52.5416 14.4509 51.9536 14.5349 51.3516 14.7028C50.7496 14.8708 50.2037 15.0948 49.7137 15.3748C49.2237 15.6408 48.8247 15.9418 48.5167 16.2778C48.2087 16.5998 48.0548 16.9218 48.0548 17.2437C48.0548 17.5657 48.2507 17.7267 48.6427 17.7267C48.8807 17.7267 49.2657 17.6987 49.7977 17.6427C50.3297 17.5867 50.9176 17.5237 51.5616 17.4537C52.2056 17.3697 52.8565 17.2787 53.5145 17.1807C54.1725 17.0827 54.7465 16.9917 55.2364 16.9078ZM63.1321 3.00635C63.1321 2.27839 63.3421 1.76041 63.7621 1.45242C64.1821 1.14443 64.875 0.990442 65.841 0.990442C66.177 0.990442 66.471 1.02544 66.7229 1.09544C66.9749 1.16543 67.1849 1.28443 67.3529 1.45242C67.5209 1.60641 67.6539 1.82341 67.7519 2.10339C67.8639 2.36938 67.9549 2.71237 68.0249 3.13235C68.2069 4.37829 68.3889 5.68724 68.5709 7.05918C68.7669 8.41712 68.9488 9.77506 69.1168 11.133C69.2988 12.4769 69.4668 13.7929 69.6208 15.0808C69.7748 16.3548 69.9078 17.5447 70.0198 18.6507C70.1458 19.7426 70.2368 20.7156 70.2928 21.5695C70.3628 22.4095 70.3978 23.0745 70.3978 23.5645C70.3978 24.0684 70.3488 24.4954 70.2508 24.8454C70.1668 25.1954 70.0128 25.4754 69.7888 25.6854C69.5788 25.8954 69.2988 26.0494 68.9488 26.1474C68.6129 26.2313 68.1929 26.2733 67.6889 26.2733C67.1989 26.2733 66.8069 26.1474 66.513 25.8954C66.233 25.6434 66.093 25.2584 66.093 24.7404C66.093 24.2084 66.051 23.5015 65.967 22.6195C65.883 21.7235 65.771 20.7296 65.631 19.6376C65.491 18.5457 65.33 17.3837 65.148 16.1518C64.98 14.9198 64.798 13.7019 64.602 12.4979C64.42 11.294 64.2381 10.139 64.0561 9.03309C63.8881 7.91314 63.7341 6.92618 63.5941 6.07222C63.4541 5.20426 63.3421 4.49729 63.2581 3.95131C63.1741 3.39134 63.1321 3.07635 63.1321 3.00635ZM72.6237 3.00635C72.6237 2.27839 72.8337 1.76041 73.2537 1.45242C73.6736 1.14443 74.3666 0.990442 75.3326 0.990442C75.6686 0.990442 75.9625 1.02544 76.2145 1.09544C76.4665 1.16543 76.6765 1.28443 76.8445 1.45242C77.0125 1.60641 77.1455 1.82341 77.2435 2.10339C77.3555 2.36938 77.4465 2.71237 77.5165 3.13235C77.6985 4.37829 77.8805 5.68724 78.0625 7.05918C78.2584 8.41712 78.4404 9.77506 78.6084 11.133C78.7904 12.4769 78.9584 13.7929 79.1124 15.0808C79.2664 16.3548 79.3994 17.5447 79.5114 18.6507C79.6374 19.7426 79.7284 20.7156 79.7844 21.5695C79.8544 22.4095 79.8894 23.0745 79.8894 23.5645C79.8894 24.0684 79.8404 24.4954 79.7424 24.8454C79.6584 25.1954 79.5044 25.4754 79.2804 25.6854C79.0704 25.8954 78.7904 26.0494 78.4404 26.1474C78.1045 26.2313 77.6845 26.2733 77.1805 26.2733C76.6905 26.2733 76.2985 26.1474 76.0045 25.8954C75.7246 25.6434 75.5846 25.2584 75.5846 24.7404C75.5846 24.2084 75.5426 23.5015 75.4586 22.6195C75.3746 21.7235 75.2626 20.7296 75.1226 19.6376C74.9826 18.5457 74.8216 17.3837 74.6396 16.1518C74.4716 14.9198 74.2896 13.7019 74.0936 12.4979C73.9116 11.294 73.7296 10.139 73.5477 9.03309C73.3797 7.91314 73.2257 6.92618 73.0857 6.07222C72.9457 5.20426 72.8337 4.49729 72.7497 3.95131C72.6657 3.39134 72.6237 3.07635 72.6237 3.00635ZM95.4077 2.67037C95.4077 1.9284 95.6177 1.41042 96.0377 1.11644C96.4577 0.80845 97.1506 0.654456 98.1166 0.654456C98.4666 0.654456 98.7606 0.689455 98.9985 0.759452C99.2505 0.815449 99.4605 0.927444 99.6285 1.09544C99.8105 1.26343 99.9505 1.48742 100.048 1.76741C100.16 2.0334 100.251 2.37638 100.321 2.79636C100.489 4.09831 100.671 5.44225 100.867 6.82819C101.077 8.21413 101.294 9.60707 101.518 11.007C101.602 11.637 101.931 11.952 102.505 11.952C102.659 11.952 102.911 11.938 103.261 11.91C103.625 11.868 104.052 11.826 104.542 11.784C105.032 11.728 105.557 11.672 106.117 11.616C106.691 11.56 107.258 11.511 107.818 11.469C108.392 11.413 108.931 11.371 109.435 11.343C109.953 11.301 110.408 11.28 110.8 11.28C111.108 11.28 111.353 11.343 111.535 11.469C111.717 11.581 111.857 11.735 111.955 11.931C112.067 12.113 112.137 12.3229 112.165 12.5609C112.207 12.7849 112.228 13.0159 112.228 13.2539C112.228 13.4639 112.186 13.6809 112.102 13.9049C112.032 14.1289 111.927 14.3319 111.787 14.5139C111.661 14.6818 111.5 14.8218 111.304 14.9338C111.108 15.0458 110.884 15.1018 110.632 15.1018C109.414 15.1018 108.182 15.1438 106.936 15.2278C105.704 15.2978 104.472 15.3958 103.24 15.5218C102.61 15.6058 102.295 15.9208 102.295 16.4668C102.295 16.5088 102.302 16.5648 102.316 16.6348C102.33 16.6908 102.337 16.7398 102.337 16.7818C102.505 17.9997 102.659 19.1407 102.799 20.2046C102.953 21.2686 103.079 22.2205 103.177 23.0605C103.289 23.8864 103.373 24.5794 103.429 25.1394C103.499 25.6854 103.534 26.0494 103.534 26.2313C103.534 26.7353 103.485 27.1553 103.387 27.4913C103.289 27.8413 103.128 28.1213 102.904 28.3313C102.68 28.5552 102.379 28.7092 102.001 28.7932C101.637 28.8912 101.175 28.9402 100.615 28.9402C100.083 28.9402 99.6915 28.8142 99.4395 28.5622C99.1875 28.3103 99.0475 27.9253 99.0195 27.4073C98.9355 25.7554 98.8026 24.0964 98.6206 22.4305C98.4386 20.7506 98.2286 19.0777 97.9906 17.4117C97.8646 16.8098 97.5496 16.5088 97.0456 16.5088C97.0036 16.5088 96.9546 16.5158 96.8986 16.5298C96.8426 16.5438 96.7936 16.5508 96.7516 16.5508C95.8837 16.7468 95.0647 16.9427 94.2947 17.1387C93.5248 17.3347 92.8038 17.5447 92.1318 17.7687C91.7539 17.8947 91.4179 17.9857 91.1239 18.0417C90.8299 18.0837 90.5639 18.1047 90.3259 18.1047C90.0039 18.1047 89.7659 17.9647 89.612 17.6847C89.458 17.3907 89.381 17.0267 89.381 16.5928C89.381 16.4388 89.395 16.2638 89.423 16.0678C89.451 15.8578 89.507 15.6548 89.591 15.4588C89.6609 15.2488 89.7729 15.0598 89.9269 14.8918C90.0669 14.7098 90.2629 14.5629 90.5149 14.4509C91.1029 14.2129 91.8869 13.9679 92.8668 13.7159C93.8468 13.4499 94.9527 13.2049 96.1847 12.9809C96.4647 12.9109 96.6816 12.7989 96.8356 12.6449C97.0036 12.4769 97.0876 12.232 97.0876 11.91C97.0876 11.84 97.0876 11.77 97.0876 11.7C97.0876 11.616 97.0736 11.532 97.0456 11.448C96.8216 10.16 96.6046 8.99109 96.3947 7.94114C96.1987 6.87719 96.0237 5.96723 95.8697 5.21126C95.7297 4.45529 95.6177 3.86032 95.5337 3.42634C95.4497 2.99235 95.4077 2.74037 95.4077 2.67037ZM122.392 11.217C121.874 11.217 121.419 11.357 121.027 11.637C120.635 11.903 120.299 12.281 120.019 12.7709C119.739 13.2469 119.508 13.8139 119.326 14.4719C119.144 15.1158 118.997 15.8228 118.885 16.5928C118.773 17.3627 118.696 18.1677 118.654 19.0077C118.612 19.8476 118.591 20.6946 118.591 21.5485C118.591 22.6685 118.633 23.7745 118.717 24.8664C118.815 25.9444 118.864 26.9453 118.864 27.8693C118.864 28.4712 118.64 28.9402 118.192 29.2762C117.744 29.6262 117.107 29.8012 116.281 29.8012C116.127 29.8012 115.952 29.7872 115.756 29.7592C115.56 29.7312 115.371 29.6752 115.189 29.5912C115.021 29.5072 114.867 29.3882 114.727 29.2342C114.601 29.0942 114.531 28.8982 114.517 28.6462C114.391 27.4143 114.209 26.1543 113.971 24.8664C113.733 23.5785 113.432 22.2975 113.068 21.0236C112.718 19.7356 112.291 18.4617 111.787 17.2017C111.297 15.9418 110.73 14.7098 110.086 13.5059C109.974 13.2959 109.876 13.0999 109.792 12.9179C109.722 12.7359 109.687 12.5609 109.687 12.3929C109.687 12.183 109.778 11.959 109.96 11.721C110.156 11.469 110.394 11.238 110.674 11.028C110.968 10.818 111.283 10.65 111.619 10.524C111.969 10.384 112.305 10.314 112.627 10.314C113.159 10.314 113.628 10.685 114.034 11.427C114.44 12.155 114.818 13.3239 115.168 14.9338C115.238 15.2138 115.294 15.4098 115.336 15.5218C115.378 15.6338 115.434 15.6898 115.504 15.6898C115.658 15.6898 115.756 15.4518 115.798 14.9758C115.966 13.6459 116.253 12.5049 116.659 11.553C117.065 10.587 117.569 9.79606 118.171 9.18009C118.787 8.55011 119.487 8.08813 120.271 7.79415C121.069 7.50016 121.944 7.35317 122.896 7.35317C123.441 7.35317 123.994 7.40216 124.554 7.50016C125.114 7.59815 125.618 7.74515 126.066 7.94114C126.514 8.13713 126.878 8.37512 127.158 8.65511C127.438 8.9351 127.578 9.25008 127.578 9.60007C127.578 9.85206 127.522 10.153 127.41 10.503C127.312 10.839 127.179 11.168 127.011 11.49C126.843 11.798 126.647 12.064 126.423 12.288C126.213 12.4979 125.996 12.6029 125.772 12.6029C125.52 12.6029 125.275 12.5329 125.037 12.3929C124.799 12.239 124.54 12.078 124.26 11.91C123.994 11.742 123.707 11.588 123.399 11.448C123.105 11.294 122.77 11.217 122.392 11.217ZM139.443 8.57111C140.213 8.57111 140.955 8.69011 141.669 8.9281C142.383 9.16609 143.013 9.49507 143.559 9.91505C144.105 10.335 144.539 10.839 144.861 11.427C145.197 12.015 145.365 12.6659 145.365 13.3799C145.365 13.6739 145.295 13.9609 145.155 14.2409C145.029 14.5069 144.854 14.7448 144.63 14.9548C144.406 15.1508 144.147 15.3118 143.853 15.4378C143.573 15.5498 143.279 15.6058 142.971 15.6058C142.943 15.6058 142.915 15.6128 142.887 15.6268C142.873 15.6268 142.852 15.6268 142.824 15.6268C142.796 15.6408 142.768 15.6478 142.74 15.6478L142.824 17.3277C142.88 19.3296 143.16 20.7926 143.664 21.7165C144.182 22.6405 144.854 23.1025 145.68 23.1025C145.974 23.1025 146.232 23.0745 146.456 23.0185C146.694 22.9625 146.911 22.8995 147.107 22.8295C147.317 22.7455 147.513 22.6755 147.695 22.6195C147.877 22.5635 148.059 22.5355 148.241 22.5355C148.563 22.5355 148.843 22.6755 149.081 22.9555C149.333 23.2355 149.459 23.5715 149.459 23.9634C149.459 24.3554 149.305 24.7474 148.997 25.1394C148.703 25.5314 148.311 25.8884 147.821 26.2103C147.331 26.5183 146.778 26.7703 146.162 26.9663C145.547 27.1623 144.924 27.2603 144.294 27.2603C143.202 27.2603 142.243 26.8123 141.417 25.9164C140.591 25.0064 140.003 23.6765 139.653 21.9265C139.569 21.6465 139.457 21.5066 139.317 21.5066C139.149 21.5066 139.002 21.5905 138.876 21.7585C137.49 23.5085 136.013 24.8244 134.445 25.7064C132.877 26.5743 131.33 27.0083 129.804 27.0083C129.09 27.0083 128.446 26.9033 127.872 26.6933C127.298 26.4833 126.808 26.1893 126.402 25.8114C126.01 25.4194 125.702 24.9504 125.478 24.4044C125.268 23.8445 125.163 23.2215 125.163 22.5355C125.163 21.5695 125.373 20.5546 125.793 19.4906C126.227 18.4267 126.808 17.3767 127.536 16.3408C128.264 15.3048 129.104 14.3179 130.056 13.3799C131.022 12.4419 132.03 11.616 133.08 10.902C134.144 10.188 135.222 9.62107 136.314 9.20109C137.406 8.7811 138.449 8.57111 139.443 8.57111ZM138.75 15.8368C139.002 15.3608 139.233 15.0178 139.443 14.8078C139.653 14.5839 139.954 14.4369 140.346 14.3669C140.654 14.3249 140.808 14.2269 140.808 14.0729C140.808 13.9609 140.766 13.8419 140.682 13.7159C140.416 13.3519 140.136 13.0369 139.842 12.7709C139.548 12.4909 139.156 12.3509 138.666 12.3509C138.134 12.3509 137.539 12.5049 136.881 12.8129C136.223 13.1209 135.551 13.5339 134.865 14.0519C134.193 14.5559 133.528 15.1368 132.87 15.7948C132.226 16.4388 131.652 17.1037 131.148 17.7897C130.644 18.4757 130.238 19.1547 129.93 19.8266C129.622 20.4986 129.468 21.1006 129.468 21.6325C129.468 22.1085 129.594 22.4795 129.846 22.7455C130.112 23.0115 130.469 23.1445 130.917 23.1445C132.065 23.1445 133.318 22.5355 134.676 21.3176C136.034 20.0996 137.392 18.2727 138.75 15.8368ZM153.302 5.50525C152.896 5.50525 152.511 5.44925 152.147 5.33725C151.797 5.21126 151.489 5.04327 151.223 4.83327C150.971 4.60928 150.768 4.3503 150.614 4.05631C150.46 3.76232 150.383 3.44034 150.383 3.09035C150.383 2.50238 150.614 2.0264 151.076 1.66241C151.552 1.29843 152.182 1.11644 152.966 1.11644C153.33 1.11644 153.68 1.18643 154.016 1.32643C154.352 1.45242 154.646 1.62741 154.898 1.8514C155.164 2.07539 155.374 2.34138 155.528 2.64937C155.682 2.94336 155.759 3.25134 155.759 3.57333C155.759 4.1753 155.535 4.65128 155.087 5.00127C154.653 5.33725 154.058 5.50525 153.302 5.50525ZM150.425 11.91C150.425 11.42 150.635 11.021 151.055 10.713C151.489 10.391 152.056 10.23 152.756 10.23C154.016 10.23 154.688 10.664 154.772 11.532C154.828 12.134 154.884 12.8129 154.94 13.5689C155.01 14.3249 155.073 15.1298 155.129 15.9838C155.199 16.8238 155.255 17.6987 155.297 18.6087C155.353 19.5046 155.402 20.3936 155.444 21.2756C155.486 22.1435 155.521 22.9835 155.549 23.7955C155.577 24.6074 155.591 25.3494 155.591 26.0214C155.591 26.7213 155.339 27.2463 154.835 27.5963C154.345 27.9463 153.624 28.1213 152.672 28.1213C152.238 28.1213 151.895 28.0163 151.643 27.8063C151.405 27.6103 151.286 27.3163 151.286 26.9243C151.286 24.9924 151.237 23.1865 151.139 21.5066C151.055 19.8126 150.957 18.3077 150.845 16.9917C150.747 15.6758 150.649 14.5839 150.551 13.7159C150.467 12.8339 150.425 12.232 150.425 11.91ZM159.833 9.97805C159.833 9.76806 159.924 9.56507 160.106 9.36908C160.288 9.15909 160.526 8.9771 160.82 8.8231C161.114 8.65511 161.443 8.52211 161.807 8.42412C162.185 8.31212 162.563 8.25613 162.941 8.25613C163.151 8.25613 163.326 8.31212 163.466 8.42412C163.62 8.53611 163.753 8.7531 163.865 9.07509C163.977 9.38308 164.075 9.82406 164.159 10.398C164.257 10.958 164.348 11.693 164.432 12.6029C164.488 12.8829 164.537 13.0999 164.579 13.2539C164.635 13.3939 164.705 13.4639 164.789 13.4639C164.915 13.4639 165.041 13.2469 165.167 12.8129C166.189 9.85906 167.666 8.38212 169.597 8.38212C170.493 8.38212 171.305 8.66211 172.033 9.22208C172.775 9.78206 173.461 10.699 174.091 11.973C174.735 13.2329 175.344 14.8988 175.918 16.9707C176.492 19.0287 177.066 21.5695 177.64 24.5934C177.668 24.7474 177.689 24.8874 177.703 25.0134C177.717 25.1394 177.724 25.2584 177.724 25.3704C177.724 25.6924 177.647 25.9724 177.493 26.2103C177.353 26.4343 177.164 26.6233 176.926 26.7773C176.688 26.9173 176.422 27.0223 176.128 27.0923C175.834 27.1763 175.54 27.2183 175.246 27.2183C174.658 27.2183 174.231 27.1553 173.965 27.0293C173.713 26.9033 173.552 26.6653 173.482 26.3153C173.076 24.1874 172.677 22.2975 172.285 20.6456C171.907 18.9937 171.529 17.6077 171.151 16.4878C170.787 15.3538 170.423 14.4929 170.059 13.9049C169.695 13.3169 169.331 13.0229 168.968 13.0229C168.604 13.0229 168.261 13.2539 167.939 13.7159C167.631 14.1639 167.33 14.8708 167.036 15.8368C166.742 16.8028 166.455 18.0277 166.175 19.5116C165.909 20.9956 165.65 22.7665 165.398 24.8244C165.328 25.3844 165.048 25.8324 164.558 26.1683C164.068 26.5043 163.445 26.6723 162.689 26.6723C162.185 26.6723 161.8 26.5673 161.534 26.3573C161.268 26.1474 161.121 25.8604 161.093 25.4964C160.967 22.5845 160.827 20.1906 160.673 18.3147C160.533 16.4248 160.4 14.9128 160.274 13.7789C160.148 12.6309 160.043 11.777 159.959 11.217C159.875 10.657 159.833 10.244 159.833 9.97805Z" fill="white"/>
</svg>
