<svg width="146" height="274" viewBox="0 0 146 274" fill="none" xmlns="http://www.w3.org/2000/svg">
<path fill-rule="evenodd" clip-rule="evenodd" d="M128.207 39.2406C131.625 35.1725 133.683 29.9243 133.683 24.1954C133.683 11.2698 123.205 0.791504 110.279 0.791504C97.3538 0.791504 86.8755 11.2698 86.8755 24.1954C86.8755 28.109 87.8361 31.7983 89.5344 35.0403C89.1124 35.7973 88.7356 36.5829 88.4077 37.3935C86.9243 36.8793 85.3312 36.6 83.6728 36.6C75.6916 36.6 69.2216 43.07 69.2216 51.0512C69.2216 54.9973 70.8032 58.5739 73.367 61.1818C69.8037 61.3099 66.9543 64.239 66.9543 67.8336C66.9543 71.5097 69.9344 74.4897 73.6105 74.4897C77.2866 74.4897 80.2666 71.5097 80.2666 67.8336C80.2666 66.7885 80.0258 65.7997 79.5966 64.9196C80.8893 65.2989 82.2573 65.5025 83.6728 65.5025C87.7309 65.5025 91.3984 63.8297 94.0233 61.1362C97.744 64.4194 102.631 66.4115 107.983 66.4115C119.641 66.4115 129.091 56.9612 129.091 45.3037C129.091 43.1963 128.782 41.161 128.207 39.2406Z" fill="white"/>
<path d="M74.6579 123.562C67.6158 123.562 61.4552 118.824 59.6482 112.018L52.5755 85.3768C50.7683 78.5692 55.9005 71.8967 62.9439 71.8967L86.3719 71.8967C93.4153 71.8967 98.5475 78.5692 96.7402 85.3768L89.6675 112.018C87.8606 118.824 81.7 123.562 74.6579 123.562Z" fill="#FFD600"/>
<rect x="15.1235" y="92.3247" width="115.994" height="111.625" rx="18.2998" fill="#FFD600"/>
<path d="M28.0967 114.274V105.161C28.0967 103.419 29.5093 102.006 31.2518 102.006H115.235C116.977 102.006 118.39 103.419 118.39 105.161V114.274C118.39 116.016 116.977 117.429 115.235 117.429H31.2518C29.5093 117.429 28.0967 116.016 28.0967 114.274Z" fill="#141F25"/>
<ellipse cx="73.1215" cy="181.893" rx="59.7213" ry="56.5761" fill="#141F25"/>
<circle cx="73.1206" cy="186.172" r="57.9971" fill="#FFD600"/>
<circle cx="15.2558" cy="210.765" r="13.2264" fill="#FFD600" stroke="#141F25" stroke-width="2.52412"/>
<circle cx="130.985" cy="210.765" r="13.2264" fill="#FFD600" stroke="#141F25" stroke-width="2.52412"/>
<circle cx="73.1208" cy="186.173" r="32.0121" fill="#141F25"/>
<path fill-rule="evenodd" clip-rule="evenodd" d="M25.2093 241.582C23.7131 240.974 22.9954 239.266 23.6084 237.772L30.052 222.064C30.4857 221.007 31.515 220.317 32.6576 220.317C34.6462 220.317 36.0084 222.322 35.2756 224.171L29.0191 239.954C28.4219 241.461 26.7109 242.192 25.2093 241.582Z" fill="#FFD600"/>
<path fill-rule="evenodd" clip-rule="evenodd" d="M121.115 243.791C122.612 243.184 123.329 241.476 122.716 239.982L116.273 224.274C115.839 223.216 114.81 222.526 113.667 222.526C111.678 222.526 110.316 224.531 111.049 226.38L117.306 242.164C117.903 243.67 119.614 244.401 121.115 243.791Z" fill="#FFD600"/>
<path fill-rule="evenodd" clip-rule="evenodd" d="M36.7895 249.965C35.1787 249.402 34.3107 247.657 34.8332 246.033L39.1356 232.656C39.5588 231.34 40.7993 230.461 42.181 230.498C44.2491 230.554 45.6884 232.575 45.0645 234.547L40.8272 247.945C40.2921 249.636 38.4645 250.551 36.7895 249.965Z" fill="#FFD600"/>
<path fill-rule="evenodd" clip-rule="evenodd" d="M107.11 252.791C108.668 252.246 109.54 250.59 109.107 248.996L104.568 232.302C104.188 230.905 102.901 229.948 101.453 229.987C99.4194 230.041 97.9732 231.985 98.5059 233.949L103.036 250.646C103.514 252.408 105.387 253.394 107.11 252.791Z" fill="#FFD600"/>
<path fill-rule="evenodd" clip-rule="evenodd" d="M53.1084 261.837C51.5591 261.402 50.5682 259.89 50.7868 258.296L53.4748 238.688C53.6743 237.234 54.9172 236.149 56.3857 236.149C58.133 236.149 59.4942 237.665 59.3068 239.402L57.1848 259.079C56.971 261.061 55.0276 262.376 53.1084 261.837Z" fill="#FFD600"/>
<path fill-rule="evenodd" clip-rule="evenodd" d="M90.601 263.986C92.1324 263.556 93.1205 262.072 92.9273 260.493L90.2636 238.73C90.0832 237.257 88.8319 236.149 87.3473 236.149C85.6135 236.149 84.2567 237.643 84.4228 239.369L86.5233 261.193C86.7156 263.191 88.6686 264.529 90.601 263.986Z" fill="#FFD600"/>
<path fill-rule="evenodd" clip-rule="evenodd" d="M71.9732 271.702C70.3524 271.702 69.0386 270.388 69.0386 268.767L69.0386 238.86C69.0386 237.24 70.3524 235.926 71.9732 235.926C73.5939 235.926 74.9077 237.24 74.9077 238.86L74.9077 268.767C74.9077 270.388 73.5939 271.702 71.9732 271.702Z" fill="#FFD600"/>
<circle cx="73.1204" cy="185.478" r="18.4714" fill="#F4441C"/>
<path d="M26.3289 239.046L61.0599 265.177C67.4752 270.003 76.2373 270.258 82.9228 265.813L119.988 241.169" stroke="#FFD600" stroke-width="5.67926" stroke-linecap="round" stroke-linejoin="round"/>
</svg>
